<svg id="Layer_1" data-name="Layer 1" xmlns="http://www.w3.org/2000/svg" viewBox="0 0 728 90"><defs><style>.cls-1{fill:#4c4c4d;}</style></defs><path class="cls-1" d="M474.724,35.709c0-1.464-.3-2.1-1.212-2.1-1.027,0-1.267,1.028-1.267,3.873,0,3.042.423,3.591,1.3,3.591.732,0,1.268-.38,1.268-2.549h2.027c0,2.169-.535,4.043-3.2,4.043-3.041,0-3.422-2.169-3.422-5.226s.381-5.226,3.422-5.226c2.9,0,3.113,2.127,3.113,3.591Z"/><path class="cls-1" d="M478.342,32.316h3.746a2.384,2.384,0,0,1,2.677,2.591c0,1.338-.536,2.24-1.677,2.479v.028c1.381.184,1.593.945,1.62,3.071.015,1.057.07,1.606.45,1.8v.084h-2.2a1.969,1.969,0,0,1-.254-1.057l-.056-1.929c-.028-.788-.381-1.267-1.2-1.267H480.37v4.253h-2.028Zm2.028,4.394h.846a1.324,1.324,0,0,0,1.521-1.507,1.249,1.249,0,0,0-1.409-1.4h-.958Z"/><path class="cls-1" d="M492.129,32.316v1.662h-3.593v2.366h3.381v1.662h-3.381v2.7h3.734v1.662h-5.762V32.316Z"/><path class="cls-1" d="M495.592,32.316H498.1l2.662,10.056h-2.113l-.465-2.126h-2.675l-.466,2.126H492.93Zm.267,6.268h1.973l-.972-4.522h-.028Z"/><path class="cls-1" d="M506.929,32.316v1.662h-2.2v8.394H502.7V33.978h-2.2V32.316Z"/><path class="cls-1" d="M508.252,42.372V32.316h2.028V42.372Z"/><path class="cls-1" d="M514.462,32.316l2.45,6.887h.029V32.316H518.8V42.372h-2.31l-2.479-7.043h-.028v7.043h-1.859V32.316Z"/><path class="cls-1" d="M525.023,35.3c0-.747-.338-1.69-1.155-1.69-.986,0-1.381,1.013-1.381,3.52,0,2.423.227,3.944,1.395,3.944a1.479,1.479,0,0,0,1.254-1.606V38.443H523.8V36.949h3.282v5.423h-1.494v-.929h-.027a2.264,2.264,0,0,1-2.114,1.127c-2.492,0-2.986-1.86-2.986-5.339,0-3.38.79-5.113,3.381-5.113,2.225,0,3.127,1.141,3.127,3.184Z"/><path class="cls-1" d="M534.093,39.231v.3c0,.944.267,1.549,1.338,1.549a1.159,1.159,0,0,0,1.211-1.24c0-.914-.465-1.252-1.8-1.717-1.8-.62-2.633-1.367-2.633-3.042,0-1.959,1.2-2.959,3.112-2.959,1.8,0,3.112.775,3.112,2.7V35.1h-1.944c0-.943-.323-1.492-1.1-1.492a1.037,1.037,0,0,0-1.154,1.168c0,.62.182,1,1.042,1.366l1.563.677c1.521.662,1.915,1.437,1.915,2.662,0,2.127-1.3,3.085-3.493,3.085-2.3,0-3.2-1.072-3.2-2.93v-.409Z"/><path class="cls-1" d="M543.315,32.118c3.042,0,3.422,2.169,3.422,5.226s-.38,5.226-3.422,5.226-3.422-2.169-3.422-5.226S540.274,32.118,543.315,32.118Zm0,8.958c1.2,0,1.395-1.028,1.395-3.732s-.2-3.732-1.395-3.732-1.394,1.042-1.394,3.732S542.119,41.076,543.315,41.076Z"/><path class="cls-1" d="M548.272,42.372V32.316H550.3V40.71h3.592v1.662Z"/><path class="cls-1" d="M557.045,32.316V39.33c0,1,.24,1.746,1.183,1.746s1.183-.746,1.183-1.746V32.316h2.028V39.33c0,2.563-1.563,3.24-3.211,3.24s-3.211-.551-3.211-3.24V32.316Z"/><path class="cls-1" d="M568.945,32.316v1.662h-2.2v8.394H564.72V33.978h-2.2V32.316Z"/><path class="cls-1" d="M570.268,42.372V32.316H572.3V42.372Z"/><path class="cls-1" d="M577.364,32.118c3.043,0,3.423,2.169,3.423,5.226s-.38,5.226-3.423,5.226-3.421-2.169-3.421-5.226S574.323,32.118,577.364,32.118Zm0,8.958c1.2,0,1.395-1.028,1.395-3.732s-.2-3.732-1.395-3.732-1.393,1.042-1.393,3.732S576.168,41.076,577.364,41.076Z"/><path class="cls-1" d="M584.66,32.316l2.45,6.887h.029V32.316H589V42.372h-2.309l-2.479-7.043h-.028v7.043h-1.859V32.316Z"/><path class="cls-1" d="M592.391,39.231v.3c0,.944.267,1.549,1.339,1.549a1.158,1.158,0,0,0,1.21-1.24c0-.914-.464-1.252-1.8-1.717-1.8-.62-2.633-1.367-2.633-3.042,0-1.959,1.2-2.959,3.112-2.959,1.8,0,3.113.775,3.113,2.7V35.1h-1.944c0-.943-.324-1.492-1.1-1.492a1.037,1.037,0,0,0-1.154,1.168c0,.62.183,1,1.042,1.366l1.564.677c1.521.662,1.914,1.437,1.914,2.662,0,2.127-1.3,3.085-3.492,3.085-2.3,0-3.2-1.072-3.2-2.93v-.409Z"/><path class="cls-1" d="M602.134,32.316h5.621v1.662h-3.593v2.366h3.381v1.662h-3.381v4.366h-2.028Z"/><path class="cls-1" d="M612.2,32.118c3.043,0,3.423,2.169,3.423,5.226s-.38,5.226-3.423,5.226-3.421-2.169-3.421-5.226S609.161,32.118,612.2,32.118Zm0,8.958c1.2,0,1.395-1.028,1.395-3.732s-.2-3.732-1.395-3.732-1.393,1.042-1.393,3.732S611.006,41.076,612.2,41.076Z"/><path class="cls-1" d="M617.456,32.316H621.2a2.384,2.384,0,0,1,2.677,2.591c0,1.338-.536,2.24-1.677,2.479v.028c1.381.184,1.593.945,1.62,3.071.015,1.057.07,1.606.45,1.8v.084h-2.2a1.969,1.969,0,0,1-.254-1.057l-.056-1.929c-.028-.788-.381-1.267-1.2-1.267h-1.085v4.253h-2.028Zm2.028,4.394h.846a1.324,1.324,0,0,0,1.521-1.507,1.249,1.249,0,0,0-1.409-1.4h-.958Z"/><path class="cls-1" d="M474.724,50.919c0-1.465-.3-2.1-1.212-2.1-1.027,0-1.267,1.027-1.267,3.872,0,3.043.423,3.592,1.3,3.592.732,0,1.268-.381,1.268-2.549h2.027c0,2.168-.535,4.042-3.2,4.042-3.041,0-3.422-2.168-3.422-5.225s.381-5.226,3.422-5.226c2.9,0,3.113,2.126,3.113,3.591Z"/><path class="cls-1" d="M481.341,47.328c3.042,0,3.423,2.169,3.423,5.226s-.381,5.225-3.423,5.225-3.422-2.168-3.422-5.225S478.3,47.328,481.341,47.328Zm0,8.958c1.2,0,1.395-1.028,1.395-3.732s-.2-3.732-1.395-3.732-1.394,1.042-1.394,3.732S480.145,56.286,481.341,56.286Z"/><path class="cls-1" d="M486.424,47.525h3.015l1.436,7.1h.029l1.45-7.1h3V57.582H493.5V49.553h-.028l-1.788,8.029H490.1l-1.79-8.029h-.027v8.029h-1.86Z"/><path class="cls-1" d="M497.268,47.525h3.014l1.436,7.1h.029l1.45-7.1h3V57.582h-1.86V49.553h-.027l-1.789,8.029h-1.578l-1.789-8.029h-.028v8.029h-1.859Z"/><path class="cls-1" d="M509.97,47.525v7.014c0,1,.24,1.747,1.183,1.747s1.183-.746,1.183-1.747V47.525h2.028v7.014c0,2.564-1.563,3.24-3.211,3.24s-3.211-.55-3.211-3.24V47.525Z"/><path class="cls-1" d="M518.405,47.525l2.451,6.888h.029V47.525h1.858V57.582h-2.31l-2.479-7.043h-.028v7.043h-1.859V47.525Z"/><path class="cls-1" d="M524.671,57.582V47.525H526.7V57.582Z"/><path class="cls-1" d="M534.515,47.525v1.662h-2.2v8.4H530.29v-8.4h-2.2V47.525Z"/><path class="cls-1" d="M535.626,57.582V47.525h2.027V57.582Z"/><path class="cls-1" d="M545.19,47.525v1.662H541.6v2.366h3.381v1.663H541.6v2.7h3.734v1.662H539.57V47.525Z"/><path class="cls-1" d="M547.849,54.441v.3c0,.943.267,1.549,1.339,1.549a1.159,1.159,0,0,0,1.21-1.24c0-.915-.464-1.253-1.8-1.717-1.8-.62-2.635-1.368-2.635-3.043,0-1.958,1.2-2.958,3.114-2.958,1.8,0,3.112.775,3.112,2.7v.282h-1.944c0-.944-.324-1.492-1.1-1.492a1.037,1.037,0,0,0-1.154,1.168c0,.62.183,1,1.042,1.366l1.564.677c1.521.661,1.914,1.437,1.914,2.662,0,2.126-1.294,3.084-3.492,3.084-2.3,0-3.2-1.071-3.2-2.929v-.409Z"/><path class="cls-1" d="M562.481,54.272a4.114,4.114,0,0,0,.352-1.521h1.746a5.226,5.226,0,0,1-1.028,2.971l1.324,1.86h-2.156l-.563-.775a3.186,3.186,0,0,1-2.422.972,2.755,2.755,0,0,1-3.085-2.9,3.549,3.549,0,0,1,2.029-2.9l-.353-.521a2.86,2.86,0,0,1-.676-1.818c0-1.309,1.057-2.112,2.564-2.112,1.718,0,2.506.929,2.506,2.1,0,1-.563,1.774-1.746,2.606Zm-2.859-1.1a2.075,2.075,0,0,0-1.029,1.7A1.341,1.341,0,0,0,560,56.2a1.578,1.578,0,0,0,1.309-.634Zm.2-2.493.24.338.365-.309a1.449,1.449,0,0,0,.635-1.1.8.8,0,0,0-.889-.845.8.8,0,0,0-.859.817A2.091,2.091,0,0,0,559.819,50.68Z"/><path class="cls-1" d="M569.2,47.525h3.4c1.662,0,2.858.62,2.858,2.549a2.1,2.1,0,0,1-1.521,2.2V52.3a2.127,2.127,0,0,1,1.831,2.338c0,1.578-.775,2.944-3.141,2.944H569.2Zm2.028,4.127h.578c1.113,0,1.62-.38,1.62-1.324s-.465-1.31-1.465-1.31h-.733Zm0,4.436h.79c.971,0,1.633-.351,1.633-1.52s-.662-1.508-1.549-1.508h-.874Z"/><path class="cls-1" d="M579.069,47.525v7.014c0,1,.239,1.747,1.183,1.747s1.183-.746,1.183-1.747V47.525h2.028v7.014c0,2.564-1.564,3.24-3.211,3.24s-3.211-.55-3.211-3.24V47.525Z"/><path class="cls-1" d="M586.5,54.441v.3c0,.943.267,1.549,1.338,1.549a1.159,1.159,0,0,0,1.211-1.24c0-.915-.465-1.253-1.8-1.717-1.8-.62-2.633-1.368-2.633-3.043,0-1.958,1.2-2.958,3.112-2.958,1.8,0,3.112.775,3.112,2.7v.282H588.9c0-.944-.323-1.492-1.1-1.492a1.037,1.037,0,0,0-1.154,1.168c0,.62.183,1,1.043,1.366l1.563.677c1.521.661,1.915,1.437,1.915,2.662,0,2.126-1.295,3.084-3.493,3.084-2.3,0-3.2-1.071-3.2-2.929v-.409Z"/><path class="cls-1" d="M592.417,57.582V47.525h2.028V57.582Z"/><path class="cls-1" d="M598.417,47.525l2.45,6.888h.029V47.525h1.858V57.582h-2.309l-2.48-7.043h-.027v7.043h-1.86V47.525Z"/><path class="cls-1" d="M609.923,47.525v1.662h-3.592v2.366h3.381v1.663h-3.381v2.7h3.733v1.662H604.3V47.525Z"/><path class="cls-1" d="M612.583,54.441v.3c0,.943.267,1.549,1.338,1.549a1.159,1.159,0,0,0,1.211-1.24c0-.915-.465-1.253-1.8-1.717-1.8-.62-2.633-1.368-2.633-3.043,0-1.958,1.2-2.958,3.112-2.958,1.8,0,3.112.775,3.112,2.7v.282h-1.944c0-.944-.323-1.492-1.1-1.492a1.037,1.037,0,0,0-1.154,1.168c0,.62.182,1,1.042,1.366l1.563.677c1.521.661,1.915,1.437,1.915,2.662,0,2.126-1.3,3.084-3.493,3.084-2.3,0-3.2-1.071-3.2-2.929v-.409Z"/><path class="cls-1" d="M620.032,54.441v.3c0,.943.267,1.549,1.339,1.549a1.159,1.159,0,0,0,1.21-1.24c0-.915-.464-1.253-1.8-1.717-1.8-.62-2.633-1.368-2.633-3.043,0-1.958,1.2-2.958,3.112-2.958,1.8,0,3.113.775,3.113,2.7v.282h-1.944c0-.944-.324-1.492-1.1-1.492a1.037,1.037,0,0,0-1.154,1.168c0,.62.183,1,1.042,1.366l1.564.677c1.521.661,1.914,1.437,1.914,2.662,0,2.126-1.294,3.084-3.492,3.084-2.3,0-3.2-1.071-3.2-2.929v-.409Z"/><path class="cls-1" d="M627.763,55.384v2.2H625.9v-2.2Z"/></svg>