<svg id="Layer_1" data-name="Layer 1" xmlns="http://www.w3.org/2000/svg" viewBox="0 0 300 250"><defs><style>.cls-1{fill:#be9a2d;}.cls-2{fill:#fff;}</style></defs><rect class="cls-1" x="42.014" y="141.522" width="96.385" height="24.173"/><path class="cls-2" d="M55.292,148.915H56.9V156.7h4.666v1.388H55.292Z"/><path class="cls-2" d="M64.057,155.148a1.766,1.766,0,0,0,1.786,1.965,1.54,1.54,0,0,0,1.62-1.1h1.388a2.91,2.91,0,0,1-3.008,2.263c-2.081,0-3.251-1.452-3.251-3.5a3.216,3.216,0,1,1,6.349.373Zm3.419-.964a1.71,1.71,0,1,0-3.419,0Z"/><path class="cls-2" d="M76.1,156.613c0,.359.078.5.347.5a2.082,2.082,0,0,0,.36-.025V158.1a3.686,3.686,0,0,1-.925.167c-.591,0-1.015-.206-1.131-.81a3.412,3.412,0,0,1-2.3.81,2.021,2.021,0,0,1-2.276-1.941c0-1.657,1.325-1.928,2.558-2.069,1.054-.193,1.993-.077,1.993-.938,0-.758-.785-.9-1.376-.9-.823,0-1.4.334-1.465,1.055H70.421c.1-1.71,1.554-2.211,3.019-2.211,1.3,0,2.66.526,2.66,1.928Zm-1.465-1.851a5.221,5.221,0,0,1-1.8.4c-.628.1-1.193.335-1.193,1.1,0,.656.834.848,1.348.848.642,0,1.645-.333,1.645-1.258Z"/><path class="cls-2" d="M78.2,151.446h1.376v1.286H79.6a2.144,2.144,0,0,1,1.94-1.465,3.642,3.642,0,0,1,.553.038v1.413a5.376,5.376,0,0,0-.63-.063c-1,0-1.8.809-1.8,2.274v3.162H78.2Z"/><path class="cls-2" d="M83.286,151.446h1.388v.977l.025.026a2.383,2.383,0,0,1,2.069-1.182,2.1,2.1,0,0,1,2.352,2.262v4.562H87.656v-4.177c-.026-1.041-.438-1.491-1.3-1.491a1.621,1.621,0,0,0-1.608,1.748v3.92H83.286Z"/><path class="cls-2" d="M94.918,148.915H97.18l2.532,7.183h.025l2.468-7.183h2.236v9.176h-1.529V151.01h-.026l-2.546,7.081H99.017l-2.544-7.081h-.026v7.081H94.918Z"/><path class="cls-2" d="M106.305,154.762a3.357,3.357,0,1,1,3.355,3.509A3.209,3.209,0,0,1,106.305,154.762Zm5.244,0c0-1.143-.579-2.339-1.889-2.339s-1.89,1.2-1.89,2.339.579,2.351,1.89,2.351S111.549,155.919,111.549,154.762Z"/><path class="cls-2" d="M114.673,151.446h1.375v1.286h.025a2.144,2.144,0,0,1,1.941-1.465,3.6,3.6,0,0,1,.552.038v1.413a5.334,5.334,0,0,0-.63-.063c-1,0-1.8.809-1.8,2.274v3.162h-1.465Z"/><path class="cls-2" d="M120.841,155.148a1.767,1.767,0,0,0,1.787,1.965,1.539,1.539,0,0,0,1.619-1.1h1.388a2.91,2.91,0,0,1-3.007,2.263c-2.081,0-3.251-1.452-3.251-3.5a3.215,3.215,0,1,1,6.348.373Zm3.418-.964a1.71,1.71,0,1,0-3.418,0Z"/></svg>