<svg id="Layer_1" data-name="Layer 1" xmlns="http://www.w3.org/2000/svg" viewBox="0 0 300 250"><defs><style>.cls-1{opacity:0.25;}.cls-2{fill:#eeddbf;}.cls-3{fill:#4c4c4d;}.cls-4{fill:#be9a2d;}</style></defs><g class="cls-1"><rect class="cls-2" width="300" height="250"/></g><path class="cls-3" d="M251.281,215.905a1.6,1.6,0,1,0-1.6,1.6v.039a1.639,1.639,0,1,1,1.638-1.639,1.64,1.64,0,0,1-1.638,1.639v-.039a1.6,1.6,0,0,0,1.6-1.6"/><path class="cls-3" d="M251.908,215.905a2.226,2.226,0,0,1-2.227,2.227v.077a2.3,2.3,0,1,0-2.3-2.3,2.3,2.3,0,0,0,2.3,2.3v-.077a2.227,2.227,0,1,1,2.227-2.227"/><polygon class="cls-3" points="249.098 214.593 249.067 214.666 249.091 214.666 249.091 214.895 249.159 214.895 249.159 214.593 249.098 214.593"/><path class="cls-3" d="M249.31,214.687a.12.12,0,0,0,.128.112.139.139,0,0,0,.077-.021c-.04.1-.145.06-.166.052l-.029.056a.178.178,0,0,0,.266-.164.147.147,0,0,0-.148-.147v.054c.037,0,.074.026.074.058a.071.071,0,0,1-.074.059.064.064,0,0,1-.066-.059.063.063,0,0,1,.066-.058v-.054a.12.12,0,0,0-.128.112"/><path class="cls-3" d="M249.787,214.91a.157.157,0,0,1-.12-.045l.04-.04a.16.16,0,0,0,.072.031c.022,0,.062-.009.062-.043,0-.017-.016-.045-.08-.037v-.052c.068.006.083-.017.083-.04s-.025-.041-.054-.041a.087.087,0,0,0-.066.036l-.045-.045a.126.126,0,0,1,.108-.051.1.1,0,0,1,.115.093.085.085,0,0,0,0,.137.107.107,0,0,1-.119.1"/><path class="cls-3" d="M250.114,214.91a.159.159,0,0,1-.12-.045l.04-.04a.16.16,0,0,0,.072.031c.022,0,.062-.009.062-.043,0-.017-.016-.045-.079-.037v-.052c.066.006.083-.017.083-.04s-.024-.041-.055-.041a.094.094,0,0,0-.066.036l-.045-.045a.126.126,0,0,1,.108-.051.106.106,0,0,1,.117.093.083.083,0,0,0,0,.137.107.107,0,0,1-.118.1"/><path class="cls-3" d="M249.134,216.894v-.174H249.1v.207h.112v-.08h.057v.08h.113v-.207h.05c.062,0,.062.032.1.032s.04-.032.063-.032.029.04.058.04.036-.04.057-.04.034.032.065.032.052-.032.114-.032a.048.048,0,0,1,.055.055.124.124,0,0,0,.247,0V216.6a.124.124,0,0,0-.124-.123v.043a.074.074,0,0,1,.074.074.145.145,0,0,1-.027.094.147.147,0,0,1,.027.095.074.074,0,0,1-.148,0,.173.173,0,0,0,0-.189.074.074,0,0,1,.074-.074v-.043a.124.124,0,0,0-.123.123.048.048,0,0,1-.055.055c-.062,0-.074-.032-.114-.032s-.042.031-.065.031-.028-.039-.057-.039-.037.039-.058.039-.033-.031-.063-.031-.042.032-.1.032h-.385v.067h.3v.174H249.3v-.081h-.125v.081Z"/><path class="cls-3" d="M251.238,215.905a1.557,1.557,0,0,1-1.557,1.557v-.077a1.48,1.48,0,1,0-1.48-1.48,1.48,1.48,0,0,0,1.48,1.48v.077a1.557,1.557,0,1,1,1.557-1.557"/><path class="cls-3" d="M251.86,215.905a2.179,2.179,0,1,0-2.179,2.179v-.038a2.14,2.14,0,1,1,2.139-2.141,2.141,2.141,0,0,1-2.139,2.141v.038a2.179,2.179,0,0,0,2.179-2.179"/><path class="cls-3" d="M249.271,213.9l.178.3a.522.522,0,0,0-.079.014l-.032-.054-.1.021.006-.075.052-.013-.044-.078-.008.091-.006.075-.005.063a.52.52,0,0,0-.077.022l.029-.351Z"/><path class="cls-3" d="M251.115,214.491l-.1.087a.031.031,0,0,0,0,.043l.074.084-.043.038-.094-.106-.052.046.114.129a.038.038,0,0,0,.055,0l.1-.085a.032.032,0,0,0,0-.043l-.074-.084.043-.037.095.107.056-.047-.119-.134a.038.038,0,0,0-.054,0"/><path class="cls-3" d="M248.135,215.15c-.01.02-.02.042-.029.064l-.3-.148.094-.187.065.034-.062.122.051.026.052-.106.065.034-.052.1Z"/><path class="cls-3" d="M251.025,214.356a.046.046,0,0,1,.006.063l-.154.188a.045.045,0,0,1-.063.006l-.062-.053c-.006,0-.03-.025-.058-.045a.044.044,0,0,1-.006-.063l.154-.188a.044.044,0,0,1,.063-.006l-.025.072-.12.145.08.066.12-.146-.08-.065.025-.072Z"/><path class="cls-3" d="M248.949,214.211l-.065.029-.029-.066.071-.033a.018.018,0,0,0,.009-.023l-.009-.02a.017.017,0,0,0-.023-.008l-.071.031.023.053.029.066.053.115-.068.033-.136-.3.2-.088a.033.033,0,0,1,.042.017l.044.1a.029.029,0,0,1-.015.038v0h0a.028.028,0,0,1,.037.015l.038.087s.01.023.028.02l0,0-.077.031a.032.032,0,0,1-.021-.021c0-.01-.02-.051-.028-.067a.024.024,0,0,0-.034-.013"/><path class="cls-3" d="M249.719,214.186v-.072l-.134,0-.009-.259-.07,0,.013.329a1.969,1.969,0,0,1,.2-.006"/><path class="cls-3" d="M248.288,214.777l.059.044a1.591,1.591,0,0,0-.119.163l-.269-.191.12-.17.058.044-.078.11.046.033.068-.1.058.043-.068.1.048.034Z"/><path class="cls-3" d="M248.391,214.767l-.236-.237.031-.031.069.031.133.134.074-.072-.134-.134-.073.072-.069-.031.111-.109a.043.043,0,0,1,.063,0l.171.172a.047.047,0,0,1,0,.064.8.8,0,0,1-.06.055l-.08.086"/><path class="cls-3" d="M248.754,214.373l.04.06a1.846,1.846,0,0,0-.168.114l-.188-.271.173-.12.038.061-.111.077.033.046.095-.066.04.06-.095.066.033.05Z"/><path class="cls-3" d="M249.865,214.193l.057-.329.044.008.014.074-.034.186.1.017.033-.185-.1-.018-.014-.074.153.027a.045.045,0,0,1,.037.051l-.043.24a.045.045,0,0,1-.053.036c-.034,0-.069-.016-.078-.017s-.085-.011-.117-.016"/><path class="cls-3" d="M250.4,214.265l-.026.067a1.63,1.63,0,0,0-.19-.072l.116-.31.2.073-.026.068-.128-.048-.02.052.11.042-.026.066-.11-.04-.02.055Z"/><path class="cls-3" d="M250.552,214.275l.037-.063.068.038a.02.02,0,0,0,.026-.007l.011-.019a.018.018,0,0,0-.008-.025l-.069-.038-.028.051-.037.063-.063.112c-.024-.014-.047-.024-.067-.035l.164-.294.191.108a.032.032,0,0,1,.013.043l-.071.126a.031.031,0,0,1-.04.011Z"/><path class="cls-3" d="M251.087,214.914l.274-.183.039.057-.274.185-.019-.029c-.006-.011-.014-.02-.02-.03"/><path class="cls-3" d="M251.456,215.033l-.229.117a.227.227,0,0,1-.017-.031c0-.011-.011-.021-.016-.031l.23-.118-.033-.063.064-.033.1.19-.065.032Z"/><polygon class="cls-3" points="247.78 215.389 247.697 215.358 247.744 215.435 247.689 215.504 247.775 215.483 247.824 215.557 247.831 215.467 247.915 215.443 247.834 215.409 247.837 215.321 247.78 215.389"/><polygon class="cls-3" points="251.527 215.41 251.445 215.444 251.53 215.468 251.536 215.556 251.587 215.484 251.672 215.504 251.618 215.434 251.664 215.359 251.581 215.39 251.524 215.32 251.527 215.41"/><path class="cls-3" d="M248.92,217.713l-.009.019-.094-.044.079-.17.094.043-.008.018.063.029.02-.044a.045.045,0,0,0-.022-.06c-.033-.016-.066-.028-.073-.033a.693.693,0,0,1-.068-.03.042.042,0,0,0-.059.021l-.1.22a.045.045,0,0,0,.023.06l.14.065a.047.047,0,0,0,.06-.023l.018-.042Z"/><path class="cls-3" d="M247.966,215.834l-.33-.022.007-.069.328.02,0,.037v.034"/><path class="cls-3" d="M247.954,216.244l-.128.034a.032.032,0,0,0-.023.037l.029.107-.057.014-.035-.135-.068.017.045.167a.037.037,0,0,0,.046.028l.128-.032a.029.029,0,0,0,.021-.036l-.029-.109.055-.014.037.139.071-.017-.046-.173a.037.037,0,0,0-.046-.027"/><path class="cls-3" d="M247.786,216.13l.191-.018c0,.011,0,.023,0,.035l0,.034-.328.031-.006-.069.193-.148-.207.007v-.07l.329-.01v.036a.194.194,0,0,1,0,.034Z"/><path class="cls-3" d="M247.847,216.805a.043.043,0,0,0,.058.023l.263-.112-.029-.065-.235.1-.042-.1.236-.1-.028-.065-.262.113a.047.047,0,0,0-.023.06Z"/><path class="cls-3" d="M248.393,217.211l-.041.08-.037-.037Zm-.26.054.057.056.057-.033.071.071-.031.057.057.057.159-.312-.06-.059Z"/><path class="cls-3" d="M248.328,216.965a.03.03,0,0,1-.007.043l-.091.062a.028.028,0,0,1-.04-.008h0v0a.028.028,0,0,1-.008.04l-.077.054s-.022.013-.015.031l0,0-.047-.068a.045.045,0,0,1,.019-.026c.009-.006.046-.028.061-.039a.026.026,0,0,0,.007-.035l-.04-.059.06-.041.043.064a.018.018,0,0,0,.024,0l.019-.012a.017.017,0,0,0,0-.025l-.044-.065-.046.033-.06.041-.107.073-.041-.062.271-.188a2.114,2.114,0,0,0,.121.177"/><path class="cls-3" d="M249.292,217.658l.019-.069a1.9,1.9,0,0,1-.194-.055l-.093.317.2.058.019-.069-.131-.038.015-.056.113.034.018-.071-.111-.032.016-.056Z"/><path class="cls-3" d="M248.655,217.518l.106-.159.029.02.03.018-.184.275-.058-.04.008-.242-.127.163-.055-.043.2-.26c.009.006.018.014.027.021l.028.02Z"/><path class="cls-3" d="M249.868,217.953a.046.046,0,0,1-.051-.039l-.032-.24a.045.045,0,0,1,.038-.051c.036,0,.071-.006.08-.008l.073-.013a.043.043,0,0,1,.05.038l.034.24a.045.045,0,0,1-.038.051l-.036-.066-.026-.187-.1.014.026.187.1-.014.036.066Z"/><path class="cls-3" d="M250.587,217.372a.032.032,0,0,1,.043.012l.068.128a.03.03,0,0,1-.012.04l-.127.068-.035-.065.071-.038a.018.018,0,0,0,.006-.023l-.011-.02a.015.015,0,0,0-.023-.008l-.071.037.028.052.035.065.062.114c-.026.015-.048.025-.068.037l-.158-.3c.044-.021.14-.071.192-.1"/><path class="cls-3" d="M251.549,216.752l-.237-.1-.029.066-.065-.028a1.911,1.911,0,0,0,.085-.2l.066.027-.029.067.237.1Z"/><path class="cls-3" d="M249.662,217.868v.022l-.1,0,.006-.188.1,0v.02l.07,0v-.049a.043.043,0,0,0-.043-.046c-.035,0-.071,0-.08,0s-.04,0-.074,0a.045.045,0,0,0-.046.044l-.009.242a.043.043,0,0,0,.043.046l.155.006a.045.045,0,0,0,.047-.043v-.046Z"/><path class="cls-3" d="M250.292,217.517a.032.032,0,0,1,.04.02l.03.1a.028.028,0,0,1-.018.037l0,0h0a.028.028,0,0,1,.036.019c.006.021.026.085.028.091a.026.026,0,0,0,.026.023v0l-.08.025a.039.039,0,0,1-.018-.025c0-.011-.014-.054-.019-.071a.029.029,0,0,0-.034-.017l-.066.022-.021-.07.074-.023a.02.02,0,0,0,.012-.021l-.008-.022a.017.017,0,0,0-.021-.012l-.074.023.017.055.021.07.037.121-.072.023-.1-.315a1.95,1.95,0,0,0,.205-.063"/><path class="cls-3" d="M250.9,217.562a.044.044,0,0,1-.063-.006l-.152-.189a.045.045,0,0,1,.006-.063c.028-.023.057-.043.064-.048l.056-.049a.044.044,0,0,1,.063.006l.154.188a.045.045,0,0,1-.008.063l-.064-.037-.119-.148-.08.066.119.147.08-.065.064.037Z"/><path class="cls-3" d="M251.038,216.969a.031.031,0,0,1,.044,0l.082.072a.031.031,0,0,1,0,.042v0l0,0a.03.03,0,0,1,.041,0c.017.015.065.058.069.063s.019.017.034.006l0,0-.055.063a.043.043,0,0,1-.028-.013c-.009-.007-.04-.038-.054-.049a.023.023,0,0,0-.035,0l-.048.053-.054-.049.053-.058a.02.02,0,0,0,0-.025l-.017-.014a.016.016,0,0,0-.024,0l-.053.058.043.037.054.049.1.085-.05.056-.246-.219a1.642,1.642,0,0,0,.142-.16"/><path class="cls-3" d="M251.3,216.947l-.057-.069.086.025Zm-.175-.091.228.265.041-.067-.043-.05.052-.084.063.018.042-.068-.339-.087Z"/><path class="cls-3" d="M251.342,216.369l.315.1-.02.066-.315-.094a.337.337,0,0,1,.01-.034l.01-.034"/><path class="cls-3" d="M251.593,215.8l-.191.006c0-.011,0-.023,0-.034a.206.206,0,0,0,0-.035l.329-.011,0,.069-.2.136.207.008,0,.069L251.4,216v-.071Z"/><path class="cls-3" d="M251.7,216.311a.046.046,0,0,1-.051.039l-.24-.039a.044.044,0,0,1-.038-.05c.006-.036.013-.07.015-.079s.005-.04.008-.074a.044.044,0,0,1,.052-.037l.239.036a.045.045,0,0,1,.038.05l-.074.016-.186-.028-.015.1.186.029.015-.1.074-.016Z"/><path class="cls-3" d="M249.189,215.227a.035.035,0,0,0,.035-.034.036.036,0,0,0-.035-.036.035.035,0,0,0-.036.036.035.035,0,0,0,.036.034"/><path class="cls-3" d="M249.18,215.2l-.12.47h.029l.086-.331v.331h.033v-.331l.086.331h-.234a.144.144,0,0,0,.131.086.147.147,0,0,0,.131-.086l-.122-.47Z"/><path class="cls-3" d="M249.68,214.989l.056.025,0,.011c-.026,0-.032.051-.032.075a.039.039,0,0,0,.04.036.827.827,0,0,1,.131-.024c.061,0,.126.027.194.027a.31.31,0,0,0,.1-.02c.017,0,.051.007.051.032s-.034.032-.051.032a.31.31,0,0,0-.1-.02c-.068,0-.133.026-.194.026a.859.859,0,0,1-.131-.023.038.038,0,0,0-.04.036c0,.014.031.043.031.043l-.05.074-.049-.074s.031-.029.031-.043a.038.038,0,0,0-.039-.036.96.96,0,0,1-.132.023c-.062,0-.126-.026-.194-.026a.3.3,0,0,0-.1.02c-.017,0-.051-.007-.051-.032s.034-.032.051-.032a.3.3,0,0,0,.1.02c.068,0,.132-.027.194-.027a.924.924,0,0,1,.132.024.039.039,0,0,0,.039-.036c0-.024-.006-.075-.033-.075l0-.011Z"/><path class="cls-3" d="M250.172,215.227a.035.035,0,0,1-.035-.034.036.036,0,0,1,.035-.036.035.035,0,0,1,.035.036.035.035,0,0,1-.035.034"/><path class="cls-3" d="M250.181,215.2l.12.47h-.03l-.086-.331v.331h-.032v-.331l-.086.331h.234a.143.143,0,0,1-.262,0l.122-.47Z"/><path class="cls-3" d="M248.9,215.091a.032.032,0,0,0,.032-.033.031.031,0,0,0-.032-.03.031.031,0,0,0-.033.03.032.032,0,0,0,.033.033"/><path class="cls-3" d="M248.788,215.2a.032.032,0,1,0-.033-.032.033.033,0,0,0,.033.032"/><path class="cls-3" d="M249.008,215.2a.032.032,0,1,0-.032-.032.032.032,0,0,0,.032.032"/><path class="cls-3" d="M248.9,215.311a.032.032,0,1,0,0-.063.032.032,0,1,0,0,.063"/><path class="cls-3" d="M249.114,215.091a.032.032,0,0,0,.033-.033.031.031,0,0,0-.033-.03.031.031,0,0,0-.032.03.032.032,0,0,0,.032.033"/><path class="cls-3" d="M250.249,215.091a.032.032,0,0,0,.033-.033.031.031,0,0,0-.033-.03.031.031,0,0,0-.032.03.032.032,0,0,0,.032.033"/><path class="cls-3" d="M250.491,215.091a.032.032,0,0,0,.032-.033.032.032,0,0,0-.063,0,.032.032,0,0,0,.031.033"/><path class="cls-3" d="M249.115,215.308a.032.032,0,0,0,.032-.033.031.031,0,0,0-.032-.03.032.032,0,0,0-.033.03.033.033,0,0,0,.033.033"/><path class="cls-3" d="M249.346,215.528a.032.032,0,1,0,0-.063.032.032,0,1,0,0,.063"/><path class="cls-3" d="M249.467,215.631a.032.032,0,0,0,.032-.032.032.032,0,0,0-.032-.031.033.033,0,0,0-.033.031.032.032,0,0,0,.033.032"/><path class="cls-3" d="M249,215.418a.032.032,0,1,0,0-.063.032.032,0,0,0,0,.063"/><path class="cls-3" d="M248.9,215.525a.032.032,0,0,0,.032-.033.031.031,0,0,0-.032-.03.031.031,0,0,0-.033.03.032.032,0,0,0,.033.033"/><path class="cls-3" d="M249.006,215.633a.032.032,0,1,0-.032-.032.032.032,0,0,0,.032.032"/><path class="cls-3" d="M249.232,215.859a.032.032,0,1,0,0-.063.032.032,0,0,0,0,.063"/><path class="cls-3" d="M248.9,215.742a.032.032,0,0,0,.032-.033.031.031,0,0,0-.032-.03.031.031,0,0,0-.033.03.032.032,0,0,0,.033.033"/><path class="cls-3" d="M248.9,215.969a.032.032,0,0,0,.032-.032.032.032,0,0,0-.032-.031.032.032,0,0,0-.033.031.031.031,0,0,0,.033.032"/><path class="cls-3" d="M248.9,216.186a.032.032,0,1,0,0-.063.032.032,0,1,0,0,.063"/><path class="cls-3" d="M249.012,216.073a.032.032,0,0,0,.032-.033.032.032,0,0,0-.032-.031.033.033,0,0,0-.033.031.033.033,0,0,0,.033.033"/><path class="cls-3" d="M249.125,215.969a.032.032,0,0,0,.033-.032.033.033,0,0,0-.033-.031.032.032,0,0,0-.032.031.032.032,0,0,0,.032.032"/><path class="cls-3" d="M249.012,215.856a.032.032,0,0,0,.032-.033.032.032,0,0,0-.032-.031.033.033,0,0,0-.033.031.033.033,0,0,0,.033.033"/><path class="cls-3" d="M248.789,216.3a.032.032,0,0,0,.031-.033.032.032,0,0,0-.063,0,.032.032,0,0,0,.032.033"/><path class="cls-3" d="M249.346,215.308a.032.032,0,0,0,.032-.033.031.031,0,0,0-.032-.03.031.031,0,0,0-.033.03.032.032,0,0,0,.033.033"/><path class="cls-3" d="M249.456,215.418a.032.032,0,1,0-.032-.032.032.032,0,0,0,.032.032"/><path class="cls-3" d="M249.573,215.521a.032.032,0,1,0,0-.063.032.032,0,1,0,0,.063"/><path class="cls-3" d="M249.573,215.308a.033.033,0,0,0,.033-.033.033.033,0,0,0-.065,0,.033.033,0,0,0,.032.033"/><path class="cls-3" d="M249.684,215.418a.032.032,0,1,0,0-.063.032.032,0,1,0,0,.063"/><path class="cls-3" d="M249.794,215.308a.032.032,0,0,0,.032-.033.032.032,0,0,0-.064,0,.032.032,0,0,0,.032.033"/><path class="cls-3" d="M249.922,215.422a.033.033,0,0,0,.033-.033.033.033,0,0,0-.033-.031.032.032,0,0,0-.032.031.032.032,0,0,0,.032.033"/><path class="cls-3" d="M250.029,215.311a.032.032,0,1,0,0-.063.032.032,0,1,0,0,.063"/><path class="cls-3" d="M249.808,215.528a.032.032,0,1,0-.032-.032.032.032,0,0,0,.032.032"/><path class="cls-3" d="M249.925,215.646a.032.032,0,0,0,.033-.033.032.032,0,0,0-.033-.031.032.032,0,0,0-.032.031.032.032,0,0,0,.032.033"/><path class="cls-3" d="M250.038,215.534a.032.032,0,0,0,.032-.033.031.031,0,0,0-.032-.03.032.032,0,0,0-.033.03.033.033,0,0,0,.033.033"/><path class="cls-3" d="M250.368,215.21a.032.032,0,1,0,0-.063.032.032,0,1,0,0,.063"/><path class="cls-3" d="M250.6,215.2a.032.032,0,0,0,.032-.032.032.032,0,0,0-.064,0,.032.032,0,0,0,.032.032"/><path class="cls-3" d="M250.481,215.311a.032.032,0,1,0,0-.063.032.032,0,1,0,0,.063"/><path class="cls-3" d="M250.367,215.425a.032.032,0,1,0-.033-.032.033.033,0,0,0,.033.032"/><path class="cls-3" d="M250.367,215.646a.032.032,0,1,0-.033-.032.033.033,0,0,0,.033.032"/><path class="cls-3" d="M250.481,215.539a.032.032,0,1,0,0-.063.032.032,0,1,0,0,.063"/><path class="cls-3" d="M250.505,215.759a.032.032,0,1,0,0-.063.032.032,0,1,0,0,.063"/><path class="cls-3" d="M250.388,215.87a.032.032,0,0,0,.032-.033.032.032,0,0,0-.064,0,.032.032,0,0,0,.032.033"/><path class="cls-3" d="M250.153,215.866a.032.032,0,1,0,0-.063.032.032,0,0,0,0,.063"/><path class="cls-3" d="M250.274,215.983a.032.032,0,0,0,.033-.032.033.033,0,0,0-.033-.031.032.032,0,0,0-.032.031.032.032,0,0,0,.032.032"/><path class="cls-3" d="M250.374,216.083a.032.032,0,1,0,0-.063.032.032,0,1,0,0,.063"/><path class="cls-3" d="M250.5,216.193a.032.032,0,0,0,.033-.032.033.033,0,0,0-.033-.031.032.032,0,0,0-.032.031.032.032,0,0,0,.032.032"/><path class="cls-3" d="M249,216.787a.032.032,0,0,0,.032-.032.032.032,0,0,0-.064,0,.032.032,0,0,0,.032.032"/><path class="cls-3" d="M249.225,216.56a.032.032,0,0,0,.032-.033.031.031,0,0,0-.032-.03.032.032,0,0,0-.033.03.033.033,0,0,0,.033.033"/><path class="cls-3" d="M249.333,216.451a.032.032,0,1,0,0-.063.032.032,0,1,0,0,.063"/><path class="cls-3" d="M249.449,216.336a.033.033,0,0,0,.033-.033.032.032,0,0,0-.033-.03.031.031,0,0,0-.032.03.032.032,0,0,0,.032.033"/><path class="cls-3" d="M249.561,216.224a.032.032,0,0,0,.032-.033.032.032,0,0,0-.064,0,.032.032,0,0,0,.032.033"/><path class="cls-3" d="M249.673,216.112a.032.032,0,0,0,.032-.033.031.031,0,0,0-.032-.03.03.03,0,0,0-.031.03.032.032,0,0,0,.031.033"/><path class="cls-3" d="M249.789,216.227a.032.032,0,1,0-.033-.032.032.032,0,0,0,.033.032"/><path class="cls-3" d="M249.909,216.334a.033.033,0,0,0,.033-.033.033.033,0,0,0-.033-.03.032.032,0,0,0-.032.03.032.032,0,0,0,.032.033"/><path class="cls-3" d="M250.02,216.444a.032.032,0,1,0,0-.063.032.032,0,1,0,0,.063"/><path class="cls-3" d="M249.789,216.448a.032.032,0,0,0,.031-.033.031.031,0,0,0-.031-.031.032.032,0,0,0-.033.031.032.032,0,0,0,.033.033"/><path class="cls-3" d="M249.679,216.337a.03.03,0,0,0,.03-.032.03.03,0,0,0-.03-.031.032.032,0,0,0-.033.031.031.031,0,0,0,.033.032"/><path class="cls-3" d="M249.565,216.451a.032.032,0,1,0,0-.063.032.032,0,1,0,0,.063"/><path class="cls-3" d="M249.454,216.561a.031.031,0,0,0,.033-.032.032.032,0,0,0-.033-.031.032.032,0,0,0-.032.031.032.032,0,0,0,.032.032"/><path class="cls-3" d="M249.679,216.561a.03.03,0,0,0,.03-.032.03.03,0,0,0-.03-.031.032.032,0,0,0-.033.031.031.031,0,0,0,.033.032"/><path class="cls-3" d="M249.9,216.561a.031.031,0,0,0,.031-.032.031.031,0,0,0-.031-.031.032.032,0,0,0-.032.031.032.032,0,0,0,.032.032"/><path class="cls-3" d="M250.244,216.665a.032.032,0,0,0,.032-.033.032.032,0,0,0-.032-.031.031.031,0,0,0-.032.031.032.032,0,0,0,.032.033"/><path class="cls-3" d="M250.361,216.771a.032.032,0,0,0,.033-.032.033.033,0,0,0-.033-.031.031.031,0,0,0-.032.031.031.031,0,0,0,.032.032"/><path class="cls-3" d="M250.247,216.889a.032.032,0,0,0,.033-.033.031.031,0,0,0-.033-.03.03.03,0,0,0-.031.03.032.032,0,0,0,.031.033"/><path class="cls-3" d="M249.8,216.892a.032.032,0,1,0,0-.063.032.032,0,1,0,0,.063"/><path class="cls-3" d="M249.565,216.892a.032.032,0,1,0,0-.063.032.032,0,1,0,0,.063"/><path class="cls-3" d="M249.9,217a.032.032,0,1,0,0-.063.032.032,0,1,0,0,.063"/><path class="cls-3" d="M249.679,217a.032.032,0,0,0,0-.063.032.032,0,1,0,0,.063"/><path class="cls-3" d="M249.454,217a.032.032,0,1,0-.032-.032.032.032,0,0,0,.032.032"/><path class="cls-3" d="M250.88,215.221c.056.021.142.121.088.175-.2-.071-.265.105-.265.205,0,.228.172.346.172.753a.791.791,0,0,1-.708.781,1.11,1.11,0,0,0-.486.226v-.042a1.3,1.3,0,0,1,.535-.224.8.8,0,0,0,.633-.75c0-.287-.117-.511-.228-.511-.046,0-.032.057-.006.095.017.022.036.06-.007.052s-.1,0-.1.043c0,.019.025.019.037.011a.116.116,0,0,1,.054-.012c.046,0,.1.029.1.063s-.065.02-.065.046.154.128.154.257c0,.042-.017.027-.026,0s-.037-.058-.062-.058-.04.009-.029.031a.349.349,0,0,1,.054.175.507.507,0,0,1-.109.262c-.022.026-.03.009-.033,0s-.013-.042-.035-.042-.014.176-.414.282a1.264,1.264,0,0,0-.451.2,1.282,1.282,0,0,0-.452-.2c-.4-.106-.377-.282-.414-.282-.021,0-.031.031-.035.042s-.011.026-.032,0a.5.5,0,0,1-.11-.262.339.339,0,0,1,.054-.175c.011-.022,0-.031-.029-.031s-.053.034-.062.058-.026.042-.026,0c0-.129.154-.238.154-.257s-.065-.012-.065-.046.051-.063.1-.063a.116.116,0,0,1,.054.012c.013.008.037.008.037-.011,0-.038-.057-.052-.1-.043s-.023-.03-.008-.052c.027-.038.042-.095,0-.095-.111,0-.228.224-.228.511a.8.8,0,0,0,.631.75,1.3,1.3,0,0,1,.538.224v.042a1.124,1.124,0,0,0-.489-.226.794.794,0,0,1-.709-.781c0-.407.174-.525.174-.753,0-.1-.063-.276-.265-.205-.056-.054.034-.154.089-.175a.439.439,0,0,1,.428-.267c.177,0,.314.085.5.085a.615.615,0,0,0,.271-.077V215a.629.629,0,0,1-.271.077c-.187,0-.324-.085-.5-.085a.461.461,0,0,0-.3.108.192.192,0,0,1,.048.017c.016.012.008.03-.015.023a.211.211,0,0,0-.054-.02.163.163,0,0,0-.026.027.189.189,0,0,1,.089.023c.02.011.012.034-.012.024a.159.159,0,0,0-.1-.019.094.094,0,0,0-.013.031l.01.043c-.036,0-.131.032-.114.094a.223.223,0,0,1,.261.228c0,.038.014.034.014.021a.255.255,0,0,0-.137-.264c-.035-.017-.026-.047.023-.02a.266.266,0,0,1,.142.23c0,.033-.008.1-.008.1a.175.175,0,0,0,.036-.123.257.257,0,0,0-.217-.262l-.01-.043c.057-.008.267.046.267.329a.589.589,0,0,1-.077.261c.055-.01.16-.007.077.138.121.026.091.146.052.146s-.048-.026-.095-.026-.04.023-.02.03a.049.049,0,0,1,.041.049c0,.051-.074.024-.138.174a.125.125,0,0,1,.049-.011c.015,0,.051,0,.051.035s-.063.076-.063.2a.534.534,0,0,0,.081.2.091.091,0,0,1,.062-.034c.077,0,.066.062.066.077a.451.451,0,0,0,.329.227,1.338,1.338,0,0,1,.472.191,1.318,1.318,0,0,1,.471-.191.449.449,0,0,0,.329-.227c0-.015-.011-.077.066-.077a.089.089,0,0,1,.061.034.518.518,0,0,0,.083-.2c0-.125-.063-.171-.063-.2s.035-.035.05-.035a.134.134,0,0,1,.05.011c-.065-.15-.139-.123-.139-.174a.049.049,0,0,1,.042-.049c.02-.007.015-.03-.02-.03s-.045.026-.1.026-.069-.12.053-.146c-.084-.145.021-.148.076-.138a.574.574,0,0,1-.076-.261.32.32,0,0,1,.146-.3.2.2,0,0,0-.036-.036c-.02-.018,0-.034.016-.02a.145.145,0,0,1,.044.045l.027-.011a.213.213,0,0,0-.039-.04c-.015-.017,0-.032.015-.021s.028.015.051.055a.09.09,0,0,1,.042,0l-.011.043a.258.258,0,0,0-.215.262.178.178,0,0,0,.035.123.941.941,0,0,1-.009-.1.266.266,0,0,1,.143-.23c.049-.027.057,0,.023.02a.254.254,0,0,0-.137.264c0,.013.014.017.014-.021a.222.222,0,0,1,.26-.228c.019-.062-.078-.094-.114-.094l.011-.043a.41.41,0,0,0-.382-.214c-.177,0-.314.085-.5.085a.628.628,0,0,1-.269-.077v-.039a.61.61,0,0,0,.268.077c.187,0,.326-.085.5-.085a.443.443,0,0,1,.43.267"/><path class="cls-3" d="M249.807,217.191a1.586,1.586,0,0,1,.405-.157c.051-.01.04.01-.009.021a1.746,1.746,0,0,0-.377.143c-.022.019-.06.019-.019-.007"/><path class="cls-3" d="M249.587,217.209a1.123,1.123,0,0,0-.377-.146c-.053-.011-.042.01.007.021a1.189,1.189,0,0,1,.351.133c.024.017.057.021.019-.008"/><path class="cls-3" d="M249.68,215.529l1.016,1a.122.122,0,0,0,0-.061l-1.012-.992-1.012.992a.122.122,0,0,0,0,.061Z"/><polygon class="cls-3" points="248.845 216.736 248.867 216.773 249.68 215.977 250.491 216.773 250.516 216.736 249.68 215.918 248.845 216.736"/><path class="cls-3" d="M249.68,215.877l.878.859c.07.057.121-.122.137-.171l-1.015-.993-1.015.993.11.066v-.052l-.031-.042.049-.015.031-.042.029.042.065-.031v-.051l-.031-.041.049-.016.03-.041.03.041.063-.031,0-.052-.031-.04.049-.015.03-.042.029.042.065-.033v-.05l-.031-.042.048-.015.031-.042.029.042.065-.033v-.051l-.031-.041.049-.016.031-.041.029.041.065-.03v-.051l-.031-.042.05-.015.029-.042.031.042.064-.032v-.051l-.031-.042.05-.015.029-.042.031.042.048.015-.031.042v.051l.014.047.049-.015.03-.042.03.042.048.015-.029.042v.051l.065.03.029-.041.029.041.049.016-.029.041v.051l.065.033.029-.042.029.042.05.015-.031.042v.05l.064.033.031-.042.029.042.05.015-.031.04v.052l.065.031.03-.041.03.041.049.016-.031.041v.051l.065.031.029-.042.031.042.048.015-.03.042v.052l-.049-.017-.048.017v-.052l-.03-.042.049-.015-.065-.031-.048-.017-.049.017,0-.051-.033-.041.05-.016-.065-.031-.048-.016-.049.016,0-.052-.031-.04.047-.015-.064-.033-.048-.017-.048.017v-.05l-.031-.042.05-.015-.065-.033-.049-.015-.048.015v-.051l-.031-.041.05-.016-.065-.03-.049-.017-.048.017v-.051l-.031-.042-.014-.047-.049-.016-.048.016-.064.032.049.015-.031.042v.051l-.049-.017-.048.017-.065.03.05.016-.031.041v.051l-.048-.015-.049.015-.065.033.049.015-.03.042v.05l-.049-.017-.049.017-.065.033.049.015-.031.04,0,.052-.049-.016-.05.016-.063.031.048.016-.031.041,0,.051-.049-.017-.048.017-.065.031.049.015-.03.042v.052l-.048-.017-.049.017-.11-.066c.016.049.066.228.137.171Z"/><polygon class="cls-3" points="228.667 213.126 228.667 214.786 231.499 214.786 231.499 216.971 228.667 216.971 228.667 220.869 226.086 220.869 226.086 210.941 231.788 210.941 231.788 213.126 228.667 213.126"/><path class="cls-3" d="M232.272,210.94v9.928h2.568l.013-2.185v-5.556h.606a2.779,2.779,0,1,1-.026,5.556h-.58l-.013,2.185h1.092a4.965,4.965,0,1,0,0-9.928Z"/><rect class="cls-3" x="241.344" y="210.941" width="2.581" height="9.928"/><path class="cls-3" d="M251.874,214.272a2.8,2.8,0,0,0-2.265-1.094,2.617,2.617,0,0,0-2.647,2.753,2.576,2.576,0,0,0,2.687,2.7,2.969,2.969,0,0,0,2.225-1.054v3.094a7.277,7.277,0,0,1-2.279.462,5.526,5.526,0,0,1-3.727-1.463,4.852,4.852,0,0,1-1.593-3.752,5.19,5.19,0,0,1,1.463-3.634,5.379,5.379,0,0,1,3.778-1.608,6.061,6.061,0,0,1,2.358.5Z"/><path class="cls-3" d="M228.662,206.159H229.8v3.78h-.736v-2.557c0-.073,0-.176,0-.308s0-.236,0-.307l-.716,3.172h-.766l-.712-3.172c0,.071,0,.174,0,.307s0,.235,0,.308v2.557h-.736v-3.78h1.15l.687,2.972Z"/><polygon class="cls-3" points="233.934 206.828 231.934 206.828 231.934 207.631 233.769 207.631 233.769 208.288 231.934 208.288 231.934 209.26 234.027 209.26 234.027 209.939 231.163 209.939 231.163 206.159 233.934 206.159 233.934 206.828"/><path class="cls-3" d="M237.759,206.159H238.9v3.78h-.736v-2.557c0-.073,0-.176,0-.308s0-.236,0-.307l-.716,3.172h-.767l-.711-3.172c0,.071,0,.174,0,.307s0,.235,0,.308v2.557h-.736v-3.78h1.15l.687,2.972Z"/><path class="cls-3" d="M241,208.275v1.007h.918a.891.891,0,0,0,.383-.066.477.477,0,0,0,.248-.473.405.405,0,0,0-.24-.4.971.971,0,0,0-.379-.064Zm0-1.459v.833h.919a.751.751,0,0,0,.4-.094.355.355,0,0,0,.154-.331.34.34,0,0,0-.2-.35,1.465,1.465,0,0,0-.447-.058Zm2.053-.254a.962.962,0,0,1,.174.577.838.838,0,0,1-.176.556.905.905,0,0,1-.288.215.838.838,0,0,1,.436.335.991.991,0,0,1,.148.552,1.112,1.112,0,0,1-.168.6,1.091,1.091,0,0,1-.268.3,1.037,1.037,0,0,1-.428.19,2.7,2.7,0,0,1-.533.05h-1.7V206.16h1.827a1.157,1.157,0,0,1,.98.4"/><polygon class="cls-3" points="247.433 206.828 245.432 206.828 245.432 207.631 247.268 207.631 247.268 208.288 245.432 208.288 245.432 209.26 247.525 209.26 247.525 209.939 244.661 209.939 244.661 206.159 247.433 206.159 247.433 206.828"/><path class="cls-3" d="M249.54,206.815v1.017h.85a.922.922,0,0,0,.38-.062.426.426,0,0,0,.223-.426.475.475,0,0,0-.217-.462.779.779,0,0,0-.365-.067Zm1.632-.559a.944.944,0,0,1,.354.265,1.2,1.2,0,0,1,.19.317,1.065,1.065,0,0,1,.07.4,1.127,1.127,0,0,1-.137.529.754.754,0,0,1-.448.368.719.719,0,0,1,.371.3,1.243,1.243,0,0,1,.108.591v.254a1.88,1.88,0,0,0,.022.352.314.314,0,0,0,.146.215v.1h-.873q-.035-.127-.051-.2a1.836,1.836,0,0,1-.032-.325l-.006-.352a.714.714,0,0,0-.125-.482.639.639,0,0,0-.45-.12h-.771v1.483h-.773v-3.781h1.809a1.644,1.644,0,0,1,.6.1"/><path class="cls-3" d="M268.484,215.476h-9.549V210.15l4.827-2.832,4.722,2.832Zm-4.722-9.766-7.5,4.27v1.543h1.149v5.3h12.516v-5.3H271.1v-1.5Z"/><rect class="cls-3" x="261.194" y="210.869" width="4.995" height="1.309"/><rect class="cls-3" x="261.194" y="212.821" width="4.995" height="1.309"/><path class="cls-3" d="M264.75,220.536h-.377v-.951h.418a.512.512,0,0,1,.564.506c0,.38-.251.445-.605.445m.041-1.31h-.877V220.9h.856c.69,0,1.087-.148,1.087-.8,0-.676-.439-.867-1.066-.867"/><path class="cls-3" d="M269.62,219.841h-.669v-.254h.69c.188,0,.271.021.271.126,0,.128-.063.128-.292.128m.274.357c.314-.042.46-.169.46-.443,0-.381-.189-.529-.648-.529h-1.212V220.9h.459v-.7h.439l.48.7h.5Z"/><polygon class="cls-3" points="261.394 219.226 261.394 220.895 261.833 220.895 261.833 219.882 262.711 220.895 263.233 220.895 263.233 219.226 262.794 219.226 262.794 220.262 261.916 219.226 261.394 219.226"/><polygon class="cls-3" points="257.086 219.226 257.086 220.895 258.737 220.895 258.737 220.536 257.547 220.515 257.547 219.226 257.086 219.226"/><polygon class="cls-3" points="259.21 220.895 260.819 220.895 260.819 220.537 259.69 220.537 259.69 220.176 260.631 220.176 260.631 219.839 259.69 219.839 259.69 219.585 260.819 219.585 260.819 219.226 259.21 219.226 259.21 220.895"/><polygon class="cls-3" points="266.371 219.226 266.371 220.895 267.959 220.875 267.959 220.536 266.832 220.536 266.832 220.177 267.793 220.177 267.793 219.839 266.832 219.839 266.832 219.585 267.959 219.585 267.959 219.226 266.371 219.226"/><path class="cls-3" d="M260.948,217.636l.146.591h-.271Zm-.168-.322-.419,1.5h.305l.092-.339h.376l.094.339h.325l-.419-1.5Z"/><path class="cls-3" d="M258.72,218.265c0,.276-.022.339-.188.339-.146,0-.188-.085-.188-.36v-.359c0-.274.02-.359.208-.359.146,0,.168.042.168.337Zm.231.339a.758.758,0,0,0,.083-.4v-.317c0-.359-.083-.613-.5-.613-.378,0-.5.212-.5.593v.4c0,.508.292.53,1.148.53l.022-.106Z"/><path class="cls-3" d="M266.557,218.413c0,.233.146.424.481.424a.492.492,0,0,0,.522-.424c0-.359-.669-.528-.669-.76,0-.085.083-.128.168-.128.125,0,.188.085.251.212l.208-.084a.421.421,0,0,0-.48-.381c-.251,0-.459.127-.459.381,0,.422.668.528.668.8,0,.106-.063.148-.188.148s-.209-.084-.251-.233Z"/><path class="cls-3" d="M264.981,218.265c0,.254-.063.339-.189.339-.167,0-.188-.106-.188-.317v-.465c0-.191.021-.318.188-.318s.189.148.189.318Zm-.188-.993c-.314,0-.5.169-.5.571v.485c0,.361.105.508.5.508s.5-.169.5-.571V217.8c0-.38-.1-.528-.5-.528"/><path class="cls-3" d="M269.351,218.265c0,.444.124.572.543.572.324,0,.418-.154.418-.318v-.486h-.439v.232h.146v.17c0,.126-.042.189-.146.189-.208,0-.23-.148-.23-.359v-.338c0-.253.022-.422.23-.422.146,0,.229.1.251.254l.209-.085a.423.423,0,0,0-.48-.4c-.419,0-.5.233-.5.55Z"/><path class="cls-3" d="M265.425,217.314v.867c0,.506.087.668.525.668.334,0,.458-.183.458-.627v-.908h-.293v.867c0,.337-.021.422-.188.422s-.188-.126-.188-.444v-.845Z"/><polygon class="cls-3" points="268.949 217.314 268.949 218.244 268.613 217.314 268.217 217.314 268.217 218.815 268.468 218.815 268.468 217.8 268.823 218.815 269.2 218.815 269.2 217.314 268.949 217.314"/><path class="cls-3" d="M259.335,217.314v.908c0,.424.041.613.46.613.481,0,.5-.232.5-.654v-.867H260v.887c0,.3-.041.382-.188.382-.166,0-.188-.085-.188-.424v-.845Z"/><polygon class="cls-3" points="263.783 217.314 263.783 217.885 263.429 217.885 263.429 217.314 263.136 217.314 263.136 218.815 263.429 218.815 263.429 218.139 263.783 218.139 263.783 218.815 264.075 218.815 264.075 217.314 263.783 217.314"/><polygon class="cls-3" points="257.064 217.314 257.064 218.815 257.817 218.815 257.817 218.582 257.359 218.582 257.359 218.159 257.776 218.159 257.776 217.948 257.359 217.948 257.359 217.546 257.817 217.546 257.817 217.314 257.064 217.314"/><polygon class="cls-3" points="261.685 217.314 261.685 218.815 262.374 218.815 262.374 218.582 261.936 218.582 261.936 217.314 261.685 217.314"/><rect class="cls-3" x="267.714" y="217.313" width="0.271" height="1.501"/><polygon class="cls-4" points="37.622 204.645 29.686 207.378 29.686 221.285 37.622 224.018 37.622 204.645"/><polygon class="cls-4" points="42.258 225.605 46.115 224.278 46.136 204.343 42.279 203.015 38.422 204.343 38.444 224.278 41.12 225.2 42.258 225.605"/><polygon class="cls-3" points="58.097 221.132 58.097 207.265 64.896 207.265 64.896 209.703 60.536 209.703 60.536 212.865 64.896 212.865 64.896 215.266 60.536 215.266 60.536 221.132 58.097 221.132"/><path class="cls-3" d="M65.988,210.656h2.163v10.477H65.988Zm2.162-1.067H65.986v-2.323H68.15Z"/><path class="cls-3" d="M74.294,212.78a2.515,2.515,0,0,0-1.8.742,3.722,3.722,0,0,0-.509,2.268v5.341H69.77V210.656h2.076v1.209a3.364,3.364,0,0,1,1.1-1.033,2.749,2.749,0,0,1,1.349-.328Z"/><path class="cls-3" d="M76.364,217.656v.143a1.849,1.849,0,0,0,.32,1.129.99.99,0,0,0,.83.433,1.042,1.042,0,0,0,.792-.324,1.157,1.157,0,0,0,.308-.828,1.251,1.251,0,0,0-.225-.767,2.409,2.409,0,0,0-.806-.605c-.218-.108-.542-.257-.968-.448a3.669,3.669,0,0,1-.822-.447,3.046,3.046,0,0,1-.778-1.062,3.357,3.357,0,0,1-.251-1.338,3.176,3.176,0,0,1,.844-2.239,2.677,2.677,0,0,1,2.045-.914,2.594,2.594,0,0,1,2.011.809,3.5,3.5,0,0,1,.81,2.267H78.483v-.057a1.2,1.2,0,0,0-.237-.79.814.814,0,0,0-.663-.286.786.786,0,0,0-.617.281,1.021,1.021,0,0,0-.248.7q0,.686,1.281,1.276c.225.1.4.182.519.239a4.118,4.118,0,0,1,1.678,1.308,3.476,3.476,0,0,1,.45,1.891,3.4,3.4,0,0,1-.9,2.424,2.978,2.978,0,0,1-2.267.958,2.754,2.754,0,0,1-2.218-1.009,4.475,4.475,0,0,1-.923-2.735Z"/><polygon class="cls-3" points="82.551 221.132 82.551 212.827 81.098 212.827 81.098 210.656 82.551 210.656 82.551 207.265 84.766 207.265 84.766 210.656 86.227 210.656 86.227 212.827 84.766 212.827 84.766 221.132 82.551 221.132"/><polygon class="cls-3" points="94.416 221.132 91.977 221.132 91.977 207.265 95.238 207.265 98.437 217.351 101.629 207.265 104.89 207.265 104.89 221.132 102.461 221.132 102.547 211.065 99.363 221.132 97.504 221.132 94.312 211.065 94.416 221.132"/><path class="cls-3" d="M113.629,214.732a3,3,0,0,0-.956-1.595,2.582,2.582,0,0,0-1.69-.547,2.39,2.39,0,0,0-1.583.59,2.9,2.9,0,0,0-.944,1.552Zm-5.25,1.934a2.7,2.7,0,0,0,.818,1.786,2.576,2.576,0,0,0,1.821.653,2.618,2.618,0,0,0,1.335-.344,2.489,2.489,0,0,0,.939-.962h2.388a5.693,5.693,0,0,1-1.813,2.662,4.391,4.391,0,0,1-2.789.947,4.612,4.612,0,0,1-1.958-.414,4.8,4.8,0,0,1-1.606-1.224,5.573,5.573,0,0,1-1.046-1.786,5.994,5.994,0,0,1-.372-2.081,6.138,6.138,0,0,1,.341-2.061,5.416,5.416,0,0,1,1.007-1.739,5.247,5.247,0,0,1,1.645-1.3,4.191,4.191,0,0,1,1.894-.457,4.534,4.534,0,0,1,2.309.619,5.505,5.505,0,0,1,1.826,1.743,4.911,4.911,0,0,1,.679,1.513,7.592,7.592,0,0,1,.221,1.925c0,.057,0,.145-.01.262s-.007.205-.007.262Z"/><path class="cls-3" d="M121.564,212.78a2.515,2.515,0,0,0-1.8.742,3.722,3.722,0,0,0-.509,2.268v5.341h-2.214V210.656h2.075v1.209a3.364,3.364,0,0,1,1.1-1.033,2.749,2.749,0,0,1,1.349-.328Z"/><path class="cls-3" d="M129.032,214.38a2.99,2.99,0,0,0-1.017-1.229,2.59,2.59,0,0,0-1.465-.41,2.368,2.368,0,0,0-1.882.9,3.357,3.357,0,0,0-.758,2.247,3.252,3.252,0,0,0,.775,2.219,2.472,2.472,0,0,0,1.942.887,2.32,2.32,0,0,0,2.388-1.7h2.362a5.474,5.474,0,0,1-1.688,3.02,4.468,4.468,0,0,1-3.044,1.095,4.613,4.613,0,0,1-1.955-.415,5,5,0,0,1-1.626-1.224,5.6,5.6,0,0,1-1.057-1.786,5.964,5.964,0,0,1-.38-2.08,6.057,6.057,0,0,1,.346-2.068,5.4,5.4,0,0,1,1.021-1.732,5.117,5.117,0,0,1,1.679-1.315,4.571,4.571,0,0,1,2.006-.448,4.5,4.5,0,0,1,3.027,1.1,5.21,5.21,0,0,1,1.688,2.943Z"/><path class="cls-3" d="M134.83,207.265v4.581a3.232,3.232,0,0,1,1.111-1.056,2.919,2.919,0,0,1,1.431-.344,3.28,3.28,0,0,1,2.734,1.2,5.5,5.5,0,0,1,.952,3.473v6.009h-2.214v-4.619a6.592,6.592,0,0,0-.437-2.919,1.608,1.608,0,0,0-1.528-.767,1.683,1.683,0,0,0-1.59.862,6.462,6.462,0,0,0-.485,2.958v4.485h-2.138V207.265Z"/><path class="cls-3" d="M144.408,215.807a3.186,3.186,0,0,0,.8,2.216,2.521,2.521,0,0,0,1.949.89,2.407,2.407,0,0,0,1.843-.9,3.053,3.053,0,0,0,.8-2.095,3.225,3.225,0,0,0-.8-2.2,2.412,2.412,0,0,0-1.872-.919,2.509,2.509,0,0,0-1.92.871,3.04,3.04,0,0,0-.8,2.128m5.64,5.325v-1.286A2.544,2.544,0,0,1,148.927,221a4,4,0,0,1-1.846.373,4.531,4.531,0,0,1-3.525-1.586,5.7,5.7,0,0,1-1.415-3.939,6.212,6.212,0,0,1,.354-2.1,5.411,5.411,0,0,1,1.014-1.743,4.365,4.365,0,0,1,3.52-1.618,3.868,3.868,0,0,1,1.786.382,2.934,2.934,0,0,1,1.207,1.152v-1.268h2.162v10.477Z"/><path class="cls-3" d="M156.036,210.656v1.19a3.226,3.226,0,0,1,1.112-1.056,2.914,2.914,0,0,1,1.432-.344,3.614,3.614,0,0,1,1.793.428,3.455,3.455,0,0,1,1.277,1.286,4.253,4.253,0,0,1,.471,1.3,11.9,11.9,0,0,1,.143,2.129v5.543H160.05v-4.638a6.473,6.473,0,0,0-.442-2.885,1.6,1.6,0,0,0-1.523-.782,1.683,1.683,0,0,0-1.59.862,6.458,6.458,0,0,0-.485,2.956v4.487h-2.136V210.656Z"/><polygon class="cls-3" points="164.611 221.132 164.611 212.827 163.157 212.827 163.157 210.656 164.611 210.656 164.611 207.265 166.825 207.265 166.825 210.656 168.286 210.656 168.286 212.827 166.825 212.827 166.825 221.132 164.611 221.132"/><path class="cls-3" d="M170.53,217.656v.143a1.849,1.849,0,0,0,.32,1.129.989.989,0,0,0,.83.433,1.043,1.043,0,0,0,.792-.324,1.156,1.156,0,0,0,.307-.828,1.25,1.25,0,0,0-.224-.767,2.409,2.409,0,0,0-.806-.605q-.33-.162-.968-.448a3.669,3.669,0,0,1-.822-.447,3.046,3.046,0,0,1-.778-1.062,3.357,3.357,0,0,1-.251-1.338,3.185,3.185,0,0,1,.844-2.239,2.675,2.675,0,0,1,2.045-.914,2.594,2.594,0,0,1,2.011.809,3.5,3.5,0,0,1,.809,2.267h-1.99v-.057a1.2,1.2,0,0,0-.238-.79.81.81,0,0,0-.662-.286.784.784,0,0,0-.617.281,1.021,1.021,0,0,0-.248.7q0,.686,1.281,1.276c.225.1.4.182.519.239a4.118,4.118,0,0,1,1.678,1.308,3.476,3.476,0,0,1,.45,1.891,3.4,3.4,0,0,1-.9,2.424,2.978,2.978,0,0,1-2.267.958,2.755,2.755,0,0,1-2.219-1.009,4.456,4.456,0,0,1-.92-2.735Z"/><polygon class="cls-4" points="42.258 202.079 55.541 206.715 55.541 202.658 42.258 198.188 42.299 198.188 29.018 202.658 29.018 206.715 42.299 202.079 42.258 202.079"/><polygon class="cls-4" points="46.937 204.645 54.873 207.378 54.873 221.285 46.937 224.018 46.937 204.645"/><path class="cls-4" d="M53.355,223.43h-.314v.6h.314a.779.779,0,0,0,.376-.068.24.24,0,0,0,.106-.224.252.252,0,0,0-.112-.234.7.7,0,0,0-.37-.074m.048-.168a.985.985,0,0,1,.526.111.39.39,0,0,1,.17.348.437.437,0,0,1-.106.295.48.48,0,0,1-.292.142l.376.768h-.289l-.354-.731h-.393v.731h-.253v-1.664Zm1.258.86a1.318,1.318,0,0,0-.1-.5,1.261,1.261,0,0,0-.275-.413,1.278,1.278,0,0,0-.425-.28,1.307,1.307,0,0,0-.505-.1,1.258,1.258,0,0,0-.492.1,1.239,1.239,0,0,0-.414.275,1.354,1.354,0,0,0-.289.425,1.218,1.218,0,0,0-.1.491,1.233,1.233,0,0,0,.1.487,1.286,1.286,0,0,0,.285.417,1.331,1.331,0,0,0,.421.282,1.252,1.252,0,0,0,.492.1,1.266,1.266,0,0,0,.5-.1,1.371,1.371,0,0,0,.431-.283,1.186,1.186,0,0,0,.275-.4,1.273,1.273,0,0,0,.1-.495m-1.3-1.451a1.516,1.516,0,0,1,.569.107,1.447,1.447,0,0,1,.783.782,1.454,1.454,0,0,1,.109.556,1.424,1.424,0,0,1-.108.556,1.364,1.364,0,0,1-.312.461,1.546,1.546,0,0,1-.484.32,1.462,1.462,0,0,1-1.115,0,1.421,1.421,0,0,1-.471-.318,1.46,1.46,0,0,1-.319-.467,1.429,1.429,0,0,1,0-1.1,1.537,1.537,0,0,1,.325-.481,1.384,1.384,0,0,1,.462-.309,1.466,1.466,0,0,1,.558-.106"/></svg>