<svg id="Layer_1" data-name="Layer 1" xmlns="http://www.w3.org/2000/svg" viewBox="0 0 728 90"><defs><style>.cls-1{opacity:0.25;}.cls-2{fill:#eeddbf;}.cls-3{fill:#4c4c4d;}.cls-4{fill:#be9a2d;}</style></defs><g class="cls-1"><rect class="cls-2" width="728" height="90"/></g><path class="cls-3" d="M699.686,74.776a1.2,1.2,0,1,0-1.2,1.2v.028a1.231,1.231,0,1,1,1.231-1.231,1.23,1.23,0,0,1-1.231,1.231v-.028a1.2,1.2,0,0,0,1.2-1.2"/><path class="cls-3" d="M700.156,74.776a1.673,1.673,0,0,1-1.672,1.673v.058a1.731,1.731,0,1,0-1.73-1.731,1.731,1.731,0,0,0,1.73,1.731v-.058a1.673,1.673,0,1,1,1.672-1.673"/><polygon class="cls-3" points="698.046 73.791 698.023 73.845 698.04 73.845 698.04 74.019 698.091 74.019 698.091 73.791 698.046 73.791"/><path class="cls-3" d="M698.206,73.861a.09.09,0,0,0,.1.085.112.112,0,0,0,.058-.016c-.03.076-.11.044-.126.038l-.021.042a.133.133,0,0,0,.2-.122.109.109,0,0,0-.11-.111v.041c.027,0,.055.02.055.043s-.028.044-.055.044a.044.044,0,1,1,0-.087v-.041a.09.09,0,0,0-.1.084"/><path class="cls-3" d="M698.564,74.029a.122.122,0,0,1-.091-.033l.031-.03a.129.129,0,0,0,.054.022c.016,0,.046-.007.046-.032s-.012-.034-.06-.027v-.04c.051,0,.063-.013.063-.03s-.018-.031-.042-.031a.067.067,0,0,0-.049.027l-.034-.033a.1.1,0,0,1,.082-.039.08.08,0,0,1,.087.07.06.06,0,0,1-.027.051.063.063,0,0,1,.029.052.081.081,0,0,1-.089.073"/><path class="cls-3" d="M698.809,74.029A.114.114,0,0,1,698.72,74l.03-.03a.13.13,0,0,0,.053.022c.016,0,.046-.007.046-.032s-.012-.034-.059-.027v-.04c.05,0,.062-.013.062-.03s-.018-.031-.041-.031a.07.07,0,0,0-.05.027l-.032-.033a.091.091,0,0,1,.08-.039.08.08,0,0,1,.088.07.06.06,0,0,1-.027.051.064.064,0,0,1,.028.052.08.08,0,0,1-.089.073"/><path class="cls-3" d="M698.073,75.518v-.13h-.025v.156h.084v-.06h.042v.06h.085v-.156h.038c.046,0,.046.023.078.023s.029-.023.047-.023.022.029.043.029.027-.029.043-.029.026.023.049.023.039-.023.085-.023c.027,0,.042.011.042.041a.093.093,0,0,0,.186,0V75.3a.094.094,0,0,0-.093-.094v.033a.055.055,0,0,1,.055.055.109.109,0,0,1-.02.071.114.114,0,0,1,.02.072.055.055,0,0,1-.055.055.054.054,0,0,1-.055-.055.114.114,0,0,1,.02-.072.109.109,0,0,1-.02-.071.055.055,0,0,1,.055-.055V75.2a.093.093,0,0,0-.093.094c0,.03-.015.041-.042.041-.046,0-.055-.025-.085-.025s-.031.024-.049.024-.02-.03-.043-.03-.027.03-.043.03-.025-.024-.047-.024-.032.025-.078.025h-.29v.05h.226v.13H698.2v-.059h-.092v.059Z"/><path class="cls-3" d="M699.653,74.776a1.169,1.169,0,0,1-1.17,1.17v-.059a1.111,1.111,0,1,0-1.11-1.111,1.111,1.111,0,0,0,1.11,1.111v.059a1.17,1.17,0,1,1,1.17-1.17"/><path class="cls-3" d="M700.12,74.776a1.637,1.637,0,1,0-1.637,1.637v-.03a1.607,1.607,0,1,1,1.607-1.607,1.606,1.606,0,0,1-1.607,1.607v.03a1.637,1.637,0,0,0,1.637-1.637"/><path class="cls-3" d="M698.176,73.268l.133.229a.54.54,0,0,0-.058.009l-.024-.04-.073.016,0-.056.038-.009-.032-.06-.006.069,0,.056,0,.048a.294.294,0,0,0-.058.016l.022-.263Z"/><path class="cls-3" d="M699.561,73.714l-.074.065a.023.023,0,0,0,0,.033l.055.062-.033.029-.07-.079-.04.034.086.1a.031.031,0,0,0,.042,0l.074-.064a.025.025,0,0,0,0-.033l-.056-.062.032-.028.072.08.041-.036-.089-.1a.028.028,0,0,0-.04,0"/><path class="cls-3" d="M697.323,74.209c-.007.015-.015.031-.022.048l-.223-.112.07-.139.049.025-.046.092.038.018.039-.077.049.023-.039.079Z"/><path class="cls-3" d="M699.493,73.613a.033.033,0,0,1,0,.047l-.116.14a.034.034,0,0,1-.048.006c-.021-.018-.04-.036-.044-.04l-.045-.034a.033.033,0,0,1,0-.048l.114-.141a.036.036,0,0,1,.048,0l-.018.053-.091.11.061.049.089-.11-.059-.049.018-.053Z"/><path class="cls-3" d="M697.934,73.5l-.049.023-.022-.051.053-.024a.012.012,0,0,0,.008-.016l-.008-.016a.012.012,0,0,0-.016-.006l-.054.023.017.039.022.051.04.086-.05.025-.1-.227.147-.066a.023.023,0,0,1,.031.012l.033.074a.023.023,0,0,1-.01.03l0,0h0a.022.022,0,0,1,.029.012c.007.014.026.059.028.064s.007.017.022.014l0,0c-.02.006-.038.015-.058.022a.022.022,0,0,1-.017-.015c0-.009-.015-.038-.021-.05a.018.018,0,0,0-.025-.011"/><path class="cls-3" d="M698.513,73.485l0-.053-.1,0-.008-.2-.052,0,.009.248a1.322,1.322,0,0,1,.152,0"/><path class="cls-3" d="M697.438,73.929l.043.033c-.03.039-.06.077-.089.123l-.2-.144.089-.128.045.033-.06.083.035.025.052-.072.043.032-.051.072.036.025Z"/><path class="cls-3" d="M697.515,73.922l-.177-.179.024-.024.051.024.1.1.055-.055-.1-.1-.055.053-.051-.024.083-.081a.033.033,0,0,1,.048,0l.128.131a.033.033,0,0,1,0,.047l-.045.04-.061.066"/><path class="cls-3" d="M697.788,73.625l.029.045c-.041.027-.083.053-.125.086l-.141-.2.128-.089.03.045-.083.058.023.035.073-.05.03.046-.071.049.023.037Z"/><path class="cls-3" d="M698.622,73.491l.043-.247.033.006.01.055-.025.14.077.013.024-.14-.076-.013-.01-.055.115.019a.034.034,0,0,1,.027.039l-.032.18a.034.034,0,0,1-.039.028c-.027,0-.052-.012-.06-.013s-.062-.009-.087-.012"/><path class="cls-3" d="M699.024,73.544l-.019.051a1.415,1.415,0,0,0-.143-.054l.087-.233.147.055-.02.05-.1-.035-.015.04.082.029-.02.051-.081-.03-.015.042Z"/><path class="cls-3" d="M699.138,73.552l.027-.048.052.028a.013.013,0,0,0,.019,0l.008-.015a.013.013,0,0,0,0-.018l-.052-.029-.022.038-.027.048-.047.085-.051-.027.124-.22.142.08a.025.025,0,0,1,.011.033l-.054.093a.023.023,0,0,1-.031.009Z"/><path class="cls-3" d="M699.54,74.032l.205-.138.03.043-.2.138-.015-.022-.015-.021"/><path class="cls-3" d="M699.817,74.121l-.172.088-.012-.023-.012-.023.172-.089-.025-.048.049-.024.073.143-.048.024Z"/><polygon class="cls-3" points="697.056 74.388 696.994 74.367 697.028 74.422 696.988 74.474 697.052 74.459 697.089 74.514 697.094 74.447 697.157 74.43 697.096 74.404 697.099 74.337 697.056 74.388"/><polygon class="cls-3" points="699.871 74.404 699.809 74.429 699.873 74.449 699.877 74.514 699.916 74.459 699.98 74.475 699.939 74.423 699.974 74.367 699.911 74.388 699.868 74.337 699.871 74.404"/><path class="cls-3" d="M697.913,76.134l-.006.013-.072-.031.058-.129.072.032-.006.014.047.022.015-.034a.035.035,0,0,0-.016-.045l-.055-.023c-.006,0-.029-.012-.051-.024a.032.032,0,0,0-.044.016l-.076.167a.033.033,0,0,0,.016.044l.107.048a.034.034,0,0,0,.045-.017l.013-.031Z"/><path class="cls-3" d="M697.2,74.722l-.247-.016,0-.052.247.016,0,.027a.209.209,0,0,0,0,.025"/><path class="cls-3" d="M697.187,75.03l-.1.026a.023.023,0,0,0-.016.028l.022.08-.043.012-.027-.1-.052.014.034.125a.03.03,0,0,0,.036.02l.1-.023a.023.023,0,0,0,.017-.027l-.023-.082.042-.01.028.1.052-.012-.034-.129a.028.028,0,0,0-.034-.021"/><path class="cls-3" d="M697.061,74.945l.143-.013,0,.025v.027l-.245.022,0-.052.144-.11-.154.005,0-.052.247-.008,0,.027v.025Z"/><path class="cls-3" d="M697.106,75.452a.036.036,0,0,0,.045.018l.2-.086-.021-.048-.177.077-.031-.071.177-.077-.021-.049-.2.084a.034.034,0,0,0-.018.046Z"/><path class="cls-3" d="M697.516,75.756l-.03.061-.028-.028Zm-.195.041.043.043.044-.024.053.053-.024.042.042.042.12-.234-.046-.044Z"/><path class="cls-3" d="M697.468,75.572a.023.023,0,0,1-.006.033l-.068.046a.021.021,0,0,1-.03-.006h0v0a.023.023,0,0,1-.006.03c-.015.009-.055.037-.06.04a.019.019,0,0,0-.01.024h0l-.035-.052a.028.028,0,0,1,.013-.019l.046-.028a.021.021,0,0,0,0-.029l-.03-.043.044-.031.035.049a.011.011,0,0,0,.017,0l.014-.009a.014.014,0,0,0,0-.019l-.033-.048-.036.024-.044.031-.079.054-.033-.046.2-.14c.028.043.061.094.092.132"/><path class="cls-3" d="M698.192,76.093l.013-.052c-.047-.012-.1-.024-.146-.042l-.069.238.151.044.014-.052-.1-.029.012-.04.085.023.013-.052-.083-.023.012-.044Z"/><path class="cls-3" d="M697.713,75.987l.079-.119c.007.005.015.009.022.015l.023.013-.139.2-.043-.028.006-.183-.093.124-.044-.033.152-.2a.106.106,0,0,0,.021.016l.021.017Z"/><path class="cls-3" d="M698.624,76.314a.034.034,0,0,1-.038-.029l-.024-.181a.035.035,0,0,1,.028-.039l.061,0,.055-.009a.032.032,0,0,1,.037.028l.025.181a.032.032,0,0,1-.028.037l-.027-.049-.019-.141-.077.011.019.141.077-.011.027.049Z"/><path class="cls-3" d="M699.164,75.878a.025.025,0,0,1,.033.009l.051.1a.023.023,0,0,1-.009.03l-.1.051-.027-.05.053-.028a.013.013,0,0,0,0-.018l-.008-.014a.014.014,0,0,0-.018-.006l-.053.028.021.038.027.05.046.086c-.02.01-.036.018-.051.027l-.119-.222c.033-.016.1-.053.144-.077"/><path class="cls-3" d="M699.887,75.412l-.178-.077-.021.05-.049-.022a1.224,1.224,0,0,0,.062-.147l.051.022-.023.049.179.076Z"/><path class="cls-3" d="M698.47,76.25v.016l-.077,0,0-.141.077,0v.016l.052,0,0-.038a.033.033,0,0,0-.033-.034h-.059l-.057,0a.031.031,0,0,0-.034.032l-.007.182a.032.032,0,0,0,.032.035l.116,0a.037.037,0,0,0,.036-.033v-.034Z"/><path class="cls-3" d="M698.942,75.986a.024.024,0,0,1,.03.015l.024.079a.021.021,0,0,1-.014.027v0h0a.022.022,0,0,1,.027.014c.006.017.02.063.021.067s0,.018.019.018l0,0-.06.018a.029.029,0,0,1-.014-.018c0-.009-.011-.041-.014-.053a.02.02,0,0,0-.025-.014l-.051.017-.016-.052.056-.018a.013.013,0,0,0,.009-.017l0-.014a.013.013,0,0,0-.018-.009l-.055.017.012.041.016.052.029.092-.054.016-.073-.236a1.3,1.3,0,0,0,.153-.048"/><path class="cls-3" d="M699.4,76.021a.033.033,0,0,1-.047,0l-.115-.142a.036.036,0,0,1,0-.048l.049-.036.042-.037a.034.034,0,0,1,.047,0l.115.141a.033.033,0,0,1,0,.047l-.049-.028-.089-.11-.06.049.09.11.059-.049.049.028Z"/><path class="cls-3" d="M699.5,75.575a.021.021,0,0,1,.032,0l.063.054a.022.022,0,0,1,0,.031v0h0a.023.023,0,0,1,.031,0c.012.012.049.043.052.048a.022.022,0,0,0,.027,0v0l-.041.047a.044.044,0,0,1-.023-.009l-.038-.038a.02.02,0,0,0-.028,0l-.035.04-.041-.035.04-.045a.014.014,0,0,0,0-.018l-.013-.012a.014.014,0,0,0-.018,0l-.038.044.031.029.041.035.072.064-.037.043-.186-.165a1.505,1.505,0,0,0,.107-.12"/><path class="cls-3" d="M699.7,75.559l-.045-.051.067.016Zm-.133-.069.17.2.033-.05-.033-.036.038-.065.05.013.031-.05-.256-.066Z"/><path class="cls-3" d="M699.731,75.124l.236.072-.015.05-.236-.071.008-.025.007-.026"/><path class="cls-3" d="M699.92,74.7l-.145,0V74.65l.248-.007,0,.052-.152.1.155.006,0,.052-.248-.009a.209.209,0,0,0,0-.025v-.027Z"/><path class="cls-3" d="M700,75.081a.034.034,0,0,1-.039.028l-.18-.028a.031.031,0,0,1-.028-.038c0-.026.01-.053.01-.058a.345.345,0,0,0,.006-.057.036.036,0,0,1,.041-.028l.179.028a.034.034,0,0,1,.029.037l-.057.012-.14-.021-.011.078.141.02.01-.077.057-.012Z"/><path class="cls-3" d="M698.114,74.266a.026.026,0,0,0,.027-.025.027.027,0,1,0-.054,0,.026.026,0,0,0,.027.025"/><path class="cls-3" d="M698.107,74.245l-.09.352h.022l.064-.248V74.6h.025v-.248l.064.248h-.175a.106.106,0,0,0,.2,0l-.091-.352Z"/><path class="cls-3" d="M698.483,74.088l.042.02,0,.007c-.021,0-.025.037-.025.057a.029.029,0,0,0,.029.026.76.76,0,0,1,.1-.017c.046,0,.1.019.146.019a.232.232,0,0,0,.074-.014c.013,0,.039,0,.039.024s-.026.024-.039.024a.219.219,0,0,0-.074-.015c-.051,0-.1.02-.146.02a.76.76,0,0,1-.1-.017.028.028,0,0,0-.029.025c0,.012.024.033.024.033l-.038.057-.037-.057s.024-.021.024-.033a.028.028,0,0,0-.03-.025.708.708,0,0,1-.1.017c-.046,0-.1-.02-.146-.02a.212.212,0,0,0-.074.015c-.014,0-.039-.006-.039-.024s.025-.024.039-.024a.225.225,0,0,0,.074.014c.051,0,.1-.019.146-.019a.708.708,0,0,1,.1.017.029.029,0,0,0,.03-.026c0-.02,0-.057-.024-.057l0-.007Z"/><path class="cls-3" d="M698.853,74.266a.026.026,0,0,1-.027-.025.027.027,0,1,1,.053,0,.026.026,0,0,1-.026.025"/><path class="cls-3" d="M698.859,74.245l.091.352h-.023l-.063-.248V74.6h-.026v-.248l-.064.248h.176a.109.109,0,0,1-.1.065.106.106,0,0,1-.1-.065l.09-.352Z"/><path class="cls-3" d="M697.9,74.164a.023.023,0,0,0,.023-.023.024.024,0,1,0-.023.023"/><path class="cls-3" d="M697.813,74.247a.024.024,0,1,0,0-.047.024.024,0,1,0,0,.047"/><path class="cls-3" d="M697.978,74.247a.024.024,0,1,0-.023-.023.023.023,0,0,0,.023.023"/><path class="cls-3" d="M697.9,74.33a.023.023,0,0,0,.023-.024.023.023,0,0,0-.023-.023.024.024,0,1,0,0,.047"/><path class="cls-3" d="M698.058,74.164a.024.024,0,1,0-.023-.023.023.023,0,0,0,.023.023"/><path class="cls-3" d="M698.911,74.164a.023.023,0,0,0,.023-.023.024.024,0,1,0-.023.023"/><path class="cls-3" d="M699.092,74.164a.024.024,0,1,0-.024-.023.023.023,0,0,0,.024.023"/><path class="cls-3" d="M698.059,74.327a.023.023,0,0,0,.023-.023.024.024,0,1,0-.023.023"/><path class="cls-3" d="M698.232,74.493a.023.023,0,0,0,.024-.024.024.024,0,0,0-.024-.024.024.024,0,0,0-.024.024.024.024,0,0,0,.024.024"/><path class="cls-3" d="M698.323,74.571a.024.024,0,0,0,.024-.024.024.024,0,0,0-.048,0,.024.024,0,0,0,.024.024"/><path class="cls-3" d="M697.976,74.41a.023.023,0,0,0,.023-.024.023.023,0,0,0-.023-.023.024.024,0,1,0,0,.047"/><path class="cls-3" d="M697.9,74.49a.023.023,0,0,0,.023-.023.024.024,0,1,0-.023.023"/><path class="cls-3" d="M697.977,74.572a.024.024,0,1,0-.024-.024.024.024,0,0,0,.024.024"/><path class="cls-3" d="M698.147,74.742a.023.023,0,0,0,.023-.024.024.024,0,1,0-.047,0,.024.024,0,0,0,.024.024"/><path class="cls-3" d="M697.9,74.653a.023.023,0,0,0,.023-.023.024.024,0,1,0-.023.023"/><path class="cls-3" d="M697.9,74.824a.023.023,0,0,0,.023-.023.024.024,0,1,0-.023.023"/><path class="cls-3" d="M697.9,74.987a.023.023,0,0,0,.023-.024.023.023,0,0,0-.023-.023.024.024,0,1,0,0,.047"/><path class="cls-3" d="M697.981,74.9a.024.024,0,1,0-.024-.024.024.024,0,0,0,.024.024"/><path class="cls-3" d="M698.067,74.824a.023.023,0,0,0,.023-.023.024.024,0,1,0-.023.023"/><path class="cls-3" d="M697.981,74.739a.024.024,0,1,0-.024-.024.024.024,0,0,0,.024.024"/><path class="cls-3" d="M697.814,75.069a.024.024,0,1,0-.023-.024.024.024,0,0,0,.023.024"/><path class="cls-3" d="M698.232,74.327a.024.024,0,1,0,0-.047.024.024,0,1,0,0,.047"/><path class="cls-3" d="M698.315,74.41a.024.024,0,1,0-.024-.024.024.024,0,0,0,.024.024"/><path class="cls-3" d="M698.4,74.488a.024.024,0,1,0-.024-.024.024.024,0,0,0,.024.024"/><path class="cls-3" d="M698.4,74.327a.024.024,0,1,0-.024-.023.023.023,0,0,0,.024.023"/><path class="cls-3" d="M698.486,74.41a.024.024,0,1,0-.024-.024.024.024,0,0,0,.024.024"/><path class="cls-3" d="M698.569,74.327a.023.023,0,0,0,.023-.023.024.024,0,1,0-.023.023"/><path class="cls-3" d="M698.665,74.413a.024.024,0,1,0-.024-.024.024.024,0,0,0,.024.024"/><path class="cls-3" d="M698.745,74.33a.024.024,0,1,0-.024-.024.024.024,0,0,0,.024.024"/><path class="cls-3" d="M698.579,74.493a.023.023,0,0,0,.024-.024.024.024,0,1,0-.047,0,.023.023,0,0,0,.023.024"/><path class="cls-3" d="M698.668,74.581a.023.023,0,0,0,.023-.024.023.023,0,0,0-.023-.023.024.024,0,1,0,0,.047"/><path class="cls-3" d="M698.752,74.5a.023.023,0,0,0,.023-.024.023.023,0,0,0-.023-.023.024.024,0,1,0,0,.047"/><path class="cls-3" d="M699,74.254a.023.023,0,0,0,.024-.024.024.024,0,0,0-.024-.024.024.024,0,0,0-.024.024.024.024,0,0,0,.024.024"/><path class="cls-3" d="M699.171,74.243a.024.024,0,1,0-.024-.024.024.024,0,0,0,.024.024"/><path class="cls-3" d="M699.084,74.33a.024.024,0,1,0,0-.047.023.023,0,0,0-.023.023.023.023,0,0,0,.023.024"/><path class="cls-3" d="M699,74.416a.023.023,0,0,0,.023-.024.024.024,0,1,0-.047,0,.024.024,0,0,0,.024.024"/><path class="cls-3" d="M699,74.581a.023.023,0,0,0,.023-.023.024.024,0,1,0-.023.023"/><path class="cls-3" d="M699.084,74.5a.023.023,0,0,0,.024-.024.024.024,0,1,0-.047,0,.023.023,0,0,0,.023.024"/><path class="cls-3" d="M699.1,74.667a.024.024,0,0,0,.024-.024.024.024,0,0,0-.048,0,.024.024,0,0,0,.024.024"/><path class="cls-3" d="M699.015,74.749a.024.024,0,1,0,0-.047.024.024,0,1,0,0,.047"/><path class="cls-3" d="M698.838,74.747a.024.024,0,1,0-.023-.024.024.024,0,0,0,.023.024"/><path class="cls-3" d="M698.929,74.835a.024.024,0,1,0-.023-.024.024.024,0,0,0,.023.024"/><path class="cls-3" d="M699,74.91a.024.024,0,1,0-.024-.024.024.024,0,0,0,.024.024"/><path class="cls-3" d="M699.1,74.993a.024.024,0,0,0,.024-.024.024.024,0,0,0-.024-.024.023.023,0,0,0-.024.024.024.024,0,0,0,.024.024"/><path class="cls-3" d="M697.97,75.439a.024.024,0,0,0,.024-.024.023.023,0,0,0-.024-.024.024.024,0,0,0-.024.024.024.024,0,0,0,.024.024"/><path class="cls-3" d="M698.141,75.268a.024.024,0,1,0,0-.048.024.024,0,1,0,0,.048"/><path class="cls-3" d="M698.223,75.186a.024.024,0,1,0,0-.047.024.024,0,1,0,0,.047"/><path class="cls-3" d="M698.31,75.1a.024.024,0,1,0,0-.047.024.024,0,1,0,0,.047"/><path class="cls-3" d="M698.394,75.015a.024.024,0,1,0,0-.047.024.024,0,1,0,0,.047"/><path class="cls-3" d="M698.478,74.931a.023.023,0,0,0,.023-.024.023.023,0,0,0-.023-.023.024.024,0,1,0,0,.047"/><path class="cls-3" d="M698.565,75.018a.024.024,0,1,0-.024-.024.024.024,0,0,0,.024.024"/><path class="cls-3" d="M698.655,75.1a.023.023,0,0,0,.024-.024.024.024,0,1,0-.047,0,.023.023,0,0,0,.023.024"/><path class="cls-3" d="M698.738,75.181a.024.024,0,1,0,0-.048.024.024,0,0,0,0,.048"/><path class="cls-3" d="M698.565,75.183a.024.024,0,1,0-.024-.023.023.023,0,0,0,.024.023"/><path class="cls-3" d="M698.482,75.1a.024.024,0,0,0,.024-.024.023.023,0,0,0-.024-.024.024.024,0,0,0-.024.024.024.024,0,0,0,.024.024"/><path class="cls-3" d="M698.4,75.186a.024.024,0,1,0,0-.047.023.023,0,0,0-.023.023.023.023,0,0,0,.023.024"/><path class="cls-3" d="M698.314,75.269a.024.024,0,1,0-.024-.024.023.023,0,0,0,.024.024"/><path class="cls-3" d="M698.482,75.269a.024.024,0,0,0,0-.048.024.024,0,0,0,0,.048"/><path class="cls-3" d="M698.648,75.269a.024.024,0,0,0,0-.048.024.024,0,0,0,0,.048"/><path class="cls-3" d="M698.907,75.346a.023.023,0,0,0,.023-.023.024.024,0,1,0-.023.023"/><path class="cls-3" d="M699,75.427a.024.024,0,0,0,.024-.024.024.024,0,0,0-.024-.024.023.023,0,0,0-.024.024.024.024,0,0,0,.024.024"/><path class="cls-3" d="M698.909,75.515a.024.024,0,1,0,0-.048.024.024,0,1,0,0,.048"/><path class="cls-3" d="M698.57,75.517a.024.024,0,1,0,0-.047.024.024,0,1,0,0,.047"/><path class="cls-3" d="M698.4,75.517a.024.024,0,1,0-.023-.023.023.023,0,0,0,.023.023"/><path class="cls-3" d="M698.65,75.6a.024.024,0,0,0,.024-.024.024.024,0,0,0-.048,0,.024.024,0,0,0,.024.024"/><path class="cls-3" d="M698.482,75.6a.024.024,0,0,0,.024-.024.023.023,0,0,0-.024-.024.024.024,0,0,0-.024.024.024.024,0,0,0,.024.024"/><path class="cls-3" d="M698.314,75.6a.023.023,0,0,0,.023-.024.024.024,0,1,0-.047,0,.024.024,0,0,0,.024.024"/><path class="cls-3" d="M699.384,74.262c.042.016.107.091.066.132-.15-.053-.2.079-.2.154,0,.17.129.26.129.566a.594.594,0,0,1-.532.586.833.833,0,0,0-.365.169v-.031a.983.983,0,0,1,.4-.168.6.6,0,0,0,.475-.564c0-.215-.088-.383-.17-.383-.036,0-.025.042,0,.071s.025.045-.008.039-.073,0-.073.033c0,.013.018.013.027.009a.076.076,0,0,1,.04-.011c.035,0,.073.022.073.048s-.047.015-.047.035.116.1.116.194c0,.029-.014.017-.021,0s-.027-.045-.046-.045-.03.007-.021.022a.29.29,0,0,1,.04.133.381.381,0,0,1-.083.2c-.015.019-.021.007-.024,0s-.01-.03-.027-.03-.01.131-.31.211a.942.942,0,0,0-.339.15.957.957,0,0,0-.339-.15c-.3-.08-.284-.211-.311-.211s-.024.022-.027.03-.009.019-.023,0a.374.374,0,0,1-.084-.2.29.29,0,0,1,.04-.133c.009-.015,0-.022-.02-.022s-.039.025-.046.045-.021.029-.021,0c0-.1.116-.18.116-.194s-.048-.01-.048-.035.037-.048.073-.048a.073.073,0,0,1,.04.011c.009,0,.027,0,.027-.009,0-.029-.042-.039-.075-.033s-.017-.022,0-.039.031-.071,0-.071c-.082,0-.171.168-.171.383a.6.6,0,0,0,.476.564.986.986,0,0,1,.4.168v.031a.842.842,0,0,0-.368-.169.6.6,0,0,1-.532-.586c0-.306.131-.4.131-.566,0-.075-.047-.207-.2-.154-.042-.041.025-.116.067-.132a.33.33,0,0,1,.321-.2c.132,0,.236.064.376.064a.474.474,0,0,0,.2-.058v.03a.474.474,0,0,1-.2.058c-.14,0-.244-.064-.376-.064a.351.351,0,0,0-.226.08.3.3,0,0,1,.036.014c.012.009.006.022-.012.016a.157.157,0,0,0-.04-.013.08.08,0,0,0-.02.021.142.142,0,0,1,.067.016c.015.009.009.025-.009.016a.151.151,0,0,0-.073-.013.138.138,0,0,0-.01.024l.007.031c-.026,0-.1.025-.084.071a.168.168,0,0,1,.2.171c0,.03.01.027.01.017a.194.194,0,0,0-.1-.2c-.025-.011-.019-.034.018-.014a.2.2,0,0,1,.107.173c0,.024-.006.072-.006.072a.133.133,0,0,0,.027-.092.2.2,0,0,0-.164-.2l-.007-.031c.043-.006.2.035.2.248a.445.445,0,0,1-.058.195c.041-.008.12,0,.058.1.09.019.068.11.038.11s-.034-.021-.071-.021-.03.018-.015.022.031.018.031.039c0,.037-.056.018-.1.129a.166.166,0,0,1,.037-.007c.011,0,.038,0,.038.025s-.048.058-.048.15a.415.415,0,0,0,.062.153.069.069,0,0,1,.047-.025c.058,0,.049.046.049.058a.345.345,0,0,0,.248.169,1.055,1.055,0,0,1,.354.143,1.042,1.042,0,0,1,.353-.143.345.345,0,0,0,.249-.169c0-.012-.009-.058.049-.058a.069.069,0,0,1,.046.025.4.4,0,0,0,.061-.153c0-.092-.048-.126-.048-.15s.028-.025.039-.025a.148.148,0,0,1,.037.007c-.048-.111-.1-.092-.1-.129,0-.021.012-.031.031-.039s.012-.022-.015-.022-.034.021-.073.021-.05-.091.041-.11c-.063-.109.016-.112.058-.1a.432.432,0,0,1-.058-.195.236.236,0,0,1,.11-.224.115.115,0,0,0-.027-.027c-.015-.015,0-.025.012-.015a.1.1,0,0,1,.032.033l.021-.008a.286.286,0,0,0-.028-.03c-.013-.013,0-.025.01-.017a.1.1,0,0,1,.039.041.11.11,0,0,1,.031,0l-.009.031a.2.2,0,0,0-.162.2.133.133,0,0,0,.027.092s-.006-.048-.006-.072a.2.2,0,0,1,.107-.173c.037-.02.043,0,.018.014a.2.2,0,0,0-.1.2c0,.01.01.013.01-.017a.169.169,0,0,1,.2-.171c.013-.046-.06-.071-.087-.071l.009-.031a.307.307,0,0,0-.287-.161c-.132,0-.236.064-.377.064a.466.466,0,0,1-.2-.058v-.03a.466.466,0,0,0,.2.058c.14,0,.244-.064.376-.064a.332.332,0,0,1,.322.2"/><path class="cls-3" d="M698.579,75.741a1.259,1.259,0,0,1,.3-.117c.04-.007.031.007-.006.016a1.185,1.185,0,0,0-.282.107c-.017.014-.046.014-.015-.006"/><path class="cls-3" d="M698.413,75.755a.859.859,0,0,0-.284-.11c-.038-.007-.031.009.006.017a.824.824,0,0,1,.263.1c.018.012.043.017.015-.006"/><path class="cls-3" d="M698.483,74.494l.764.748a.126.126,0,0,0,0-.048l-.76-.743-.76.743a.08.08,0,0,0,0,.048Z"/><polygon class="cls-3" points="697.856 75.399 697.873 75.428 698.482 74.831 699.093 75.428 699.109 75.399 698.482 74.787 697.856 75.399"/><path class="cls-3" d="M698.483,74.755l.66.645c.052.043.091-.091.1-.129l-.761-.745-.761.745.082.05v-.039l-.024-.031.037-.012.022-.031.023.031.049-.023v-.038l-.023-.031.036-.012.022-.031.023.031.049-.024v-.038L698,75.042l.037-.011.021-.031.022.031.049-.024v-.038l-.022-.031.037-.012.022-.032.022.032.048-.024v-.039l-.023-.031.037-.01.022-.033.022.033.048-.024v-.039l-.023-.031.037-.012.022-.031.022.031.049-.024v-.038l-.023-.03.037-.012.022-.031.022.031.038.012-.024.03v.038l.011.036.037-.012.022-.031.022.031.036.012-.022.031V74.8l.049.024.022-.033.022.033.038.01-.024.031V74.9l.048.024.022-.032.022.032.038.012-.023.031v.038l.048.024.024-.031.02.031.038.011-.023.031v.038l.049.024.023-.031.022.031.036.012-.023.031v.038l.049.023.023-.031.022.031.037.012-.024.031v.039l-.035-.012-.037.012v-.039l-.023-.031.037-.012-.049-.023-.035-.012-.037.012v-.038l-.024-.031.037-.012-.049-.024-.035-.011-.038.011v-.038l-.022-.031.036-.011-.048-.024-.037-.013-.036.013v-.038l-.022-.031.036-.012-.048-.024-.037-.012-.036.012v-.039l-.023-.031.037-.01-.049-.024-.036-.014-.037.014v-.039l-.023-.031-.011-.036-.037-.012-.036.012-.049.024.037.012-.023.031V74.8l-.036-.014-.037.014-.048.024.037.01-.023.031V74.9l-.036-.012-.037.012-.048.024.036.012-.022.031v.038l-.036-.013-.037.013-.049.024.037.011-.022.031v.038l-.037-.011-.036.011-.049.024.037.012-.024.031,0,.038-.038-.012-.035.012-.049.023.037.012-.024.031,0,.039-.038-.012-.035.012-.082-.05c.01.038.048.172.1.129Z"/><polygon class="cls-3" points="682.703 72.689 682.703 73.935 684.828 73.935 684.828 75.577 682.703 75.577 682.703 78.504 680.764 78.504 680.764 71.048 685.047 71.048 685.047 72.689 682.703 72.689"/><path class="cls-3" d="M685.41,71.047V78.5h1.929l.009-1.641V72.688h.455a2.088,2.088,0,1,1-.019,4.174h-.436l-.009,1.641h.82a3.728,3.728,0,1,0,0-7.456Z"/><rect class="cls-3" x="692.222" y="71.048" width="1.938" height="7.456"/><path class="cls-3" d="M700.13,73.549a2.1,2.1,0,0,0-1.7-.82,1.964,1.964,0,0,0-1.988,2.066,1.935,1.935,0,0,0,2.018,2.028,2.228,2.228,0,0,0,1.67-.791v2.323a5.452,5.452,0,0,1-1.711.346,4.156,4.156,0,0,1-2.8-1.1,3.648,3.648,0,0,1-1.2-2.818,3.905,3.905,0,0,1,1.1-2.73,4.043,4.043,0,0,1,2.838-1.206,4.533,4.533,0,0,1,1.77.376Z"/><path class="cls-3" d="M682.7,67.457h.853V70.3H683v-1.92c0-.055,0-.133,0-.232s0-.177,0-.231l-.538,2.383h-.577l-.534-2.383c0,.054,0,.131,0,.231s0,.177,0,.232V70.3h-.551V67.457h.862l.517,2.233Z"/><polygon class="cls-3" points="686.658 67.96 685.155 67.96 685.155 68.563 686.535 68.563 686.535 69.055 685.155 69.055 685.155 69.785 686.728 69.785 686.728 70.296 684.576 70.296 684.576 67.457 686.658 67.457 686.658 67.96"/><path class="cls-3" d="M689.531,67.457h.853V70.3h-.553v-1.92c0-.055,0-.133,0-.232s0-.177,0-.231L689.3,70.3h-.577l-.533-2.383c0,.054,0,.131,0,.231s0,.177,0,.232V70.3h-.552V67.457h.862l.518,2.233Z"/><path class="cls-3" d="M691.966,69.045V69.8h.69a.694.694,0,0,0,.287-.05.356.356,0,0,0,.187-.354.305.305,0,0,0-.181-.305.725.725,0,0,0-.284-.049Zm0-1.095v.625h.69a.57.57,0,0,0,.3-.069.269.269,0,0,0,.116-.25.255.255,0,0,0-.153-.262,1.057,1.057,0,0,0-.336-.044Zm1.542-.191a.729.729,0,0,1,.13.434.631.631,0,0,1-.132.418.694.694,0,0,1-.215.162.623.623,0,0,1,.327.25.746.746,0,0,1,.11.416.824.824,0,0,1-.127.452.782.782,0,0,1-.2.224.793.793,0,0,1-.322.142,1.911,1.911,0,0,1-.4.038H691.4V67.458h1.372a.87.87,0,0,1,.736.3"/><polygon class="cls-3" points="696.795 67.96 695.293 67.96 695.293 68.563 696.672 68.563 696.672 69.055 695.293 69.055 695.293 69.785 696.865 69.785 696.865 70.296 694.713 70.296 694.713 67.457 696.795 67.457 696.795 67.96"/><path class="cls-3" d="M698.377,67.949v.763h.639a.682.682,0,0,0,.286-.046.322.322,0,0,0,.168-.32.358.358,0,0,0-.164-.346.585.585,0,0,0-.273-.051Zm1.227-.419a.723.723,0,0,1,.266.2.916.916,0,0,1,.142.239.822.822,0,0,1,.052.3.847.847,0,0,1-.1.4.561.561,0,0,1-.336.276.538.538,0,0,1,.278.225.932.932,0,0,1,.082.444v.19a1.387,1.387,0,0,0,.016.265.241.241,0,0,0,.108.162V70.3h-.654c-.018-.064-.031-.114-.038-.153a1.493,1.493,0,0,1-.026-.243l0-.265a.523.523,0,0,0-.094-.361.471.471,0,0,0-.337-.091h-.58V70.3h-.58V67.457h1.359a1.246,1.246,0,0,1,.448.073"/><path class="cls-3" d="M712.605,74.454h-7.172v-4l3.625-2.127,3.547,2.127Zm-3.547-7.334-5.633,3.206v1.158h.863v3.985h9.4V71.484h.88V70.357Z"/><rect class="cls-3" x="707.13" y="70.993" width="3.752" height="0.984"/><rect class="cls-3" x="707.13" y="72.46" width="3.752" height="0.983"/><path class="cls-3" d="M709.8,78.254h-.282v-.715h.314a.385.385,0,0,1,.423.38c0,.287-.189.335-.455.335m.032-.984h-.659v1.254h.642c.519,0,.816-.111.816-.6,0-.509-.328-.651-.8-.651"/><path class="cls-3" d="M713.458,77.731h-.5v-.19h.517c.141,0,.2.016.2.095,0,.095-.046.095-.219.095m.205.269c.235-.031.345-.126.345-.333,0-.285-.141-.4-.486-.4h-.91v1.253h.345V78h.33l.36.523h.377Z"/><polygon class="cls-3" points="708.331 77.269 708.331 78.048 707.673 77.269 707.28 77.269 707.28 78.524 707.61 78.524 707.61 77.761 708.269 78.524 708.661 78.524 708.661 77.269 708.331 77.269"/><polygon class="cls-3" points="704.045 77.269 704.045 78.524 705.285 78.524 705.285 78.253 704.39 78.239 704.39 77.269 704.045 77.269"/><polygon class="cls-3" points="705.64 77.269 705.64 78.524 706.848 78.524 706.848 78.253 706.001 78.253 706.001 77.984 706.707 77.984 706.707 77.73 706.001 77.73 706.001 77.54 706.848 77.54 706.848 77.269 705.64 77.269"/><polygon class="cls-3" points="711.017 77.269 711.017 78.524 712.211 78.508 712.211 78.253 711.362 78.253 711.362 77.984 712.085 77.984 712.085 77.73 711.362 77.73 711.362 77.54 712.211 77.54 712.211 77.269 711.017 77.269"/><path class="cls-3" d="M706.946,76.075l.109.446h-.2Zm-.128-.241-.313,1.128h.227l.07-.254h.284l.068.254h.245l-.313-1.128Z"/><path class="cls-3" d="M705.271,76.549c0,.206-.014.254-.141.254-.11,0-.141-.064-.141-.271v-.269c0-.206.016-.27.158-.27.11,0,.124.032.124.254Zm.174.254a.565.565,0,0,0,.063-.3v-.238c0-.27-.063-.461-.376-.461-.283,0-.378.159-.378.445v.3c0,.38.22.4.864.4l.016-.078Z"/><path class="cls-3" d="M711.158,76.66c0,.174.11.318.361.318a.371.371,0,0,0,.392-.318c0-.271-.5-.4-.5-.571,0-.064.062-.1.125-.1.1,0,.141.064.188.159l.158-.062a.318.318,0,0,0-.361-.287c-.189,0-.345.095-.345.287,0,.316.5.4.5.6,0,.08-.046.111-.141.111s-.156-.064-.188-.174Z"/><path class="cls-3" d="M709.974,76.549c0,.19-.047.254-.141.254-.126,0-.141-.08-.141-.238v-.349c0-.143.015-.24.141-.24s.141.112.141.24Zm-.141-.746c-.235,0-.376.126-.376.428V76.6c0,.269.077.381.376.381s.376-.127.376-.428V76.2c0-.285-.077-.4-.376-.4"/><path class="cls-3" d="M713.256,76.549c0,.333.093.428.407.428.244,0,.315-.115.315-.238v-.364h-.33v.174h.11v.126c0,.095-.031.143-.11.143-.158,0-.172-.11-.172-.269v-.255c0-.19.014-.316.172-.316.11,0,.172.079.189.19l.156-.064a.318.318,0,0,0-.361-.3c-.314,0-.376.176-.376.414Z"/><path class="cls-3" d="M710.308,75.834v.651c0,.381.063.5.393.5.252,0,.344-.139.344-.472v-.682h-.22v.651c0,.254-.015.317-.141.317s-.142-.1-.142-.333v-.635Z"/><polygon class="cls-3" points="712.953 75.834 712.953 76.533 712.702 75.834 712.405 75.834 712.405 76.962 712.592 76.962 712.592 76.2 712.86 76.962 713.142 76.962 713.142 75.834 712.953 75.834"/><path class="cls-3" d="M705.734,75.834v.682c0,.319.031.461.345.461.361,0,.377-.175.377-.492v-.651h-.22V76.5c0,.223-.031.287-.141.287-.126,0-.141-.064-.141-.318v-.635Z"/><polygon class="cls-3" points="709.074 75.834 709.074 76.262 708.808 76.262 708.808 75.834 708.588 75.834 708.588 76.962 708.808 76.962 708.808 76.454 709.074 76.454 709.074 76.962 709.294 76.962 709.294 75.834 709.074 75.834"/><polygon class="cls-3" points="704.029 75.834 704.029 76.962 704.594 76.962 704.594 76.787 704.249 76.787 704.249 76.469 704.562 76.469 704.562 76.31 704.249 76.31 704.249 76.009 704.594 76.009 704.594 75.834 704.029 75.834"/><polygon class="cls-3" points="707.499 75.834 707.499 76.962 708.016 76.962 708.016 76.787 707.686 76.787 707.686 75.834 707.499 75.834"/><rect class="cls-3" x="712.026" y="75.834" width="0.204" height="1.128"/><polygon class="cls-3" points="48.087 52.222 48.087 39.985 54.088 39.985 54.088 42.136 50.24 42.136 50.24 44.927 54.088 44.927 54.088 47.045 50.24 47.045 50.24 52.222 48.087 52.222"/><path class="cls-3" d="M55.051,42.976H56.96v9.245H55.051Zm1.909-.941H55.051V39.984H56.96Z"/><path class="cls-3" d="M62.383,44.851a2.208,2.208,0,0,0-1.588.655,3.283,3.283,0,0,0-.452,2v4.715H58.39V42.976h1.833v1.068a2.982,2.982,0,0,1,.969-.913,2.442,2.442,0,0,1,1.191-.29Z"/><path class="cls-3" d="M64.209,49.155v.126a1.633,1.633,0,0,0,.283,1,.872.872,0,0,0,.732.382.917.917,0,0,0,.7-.286,1.017,1.017,0,0,0,.271-.731,1.1,1.1,0,0,0-.2-.678,2.123,2.123,0,0,0-.711-.532q-.29-.144-.854-.4a3.23,3.23,0,0,1-.726-.4,2.675,2.675,0,0,1-.686-.937,2.948,2.948,0,0,1-.222-1.181,2.8,2.8,0,0,1,.745-1.975,2.362,2.362,0,0,1,1.8-.807,2.28,2.28,0,0,1,1.775.715,3.09,3.09,0,0,1,.715,2H66.079v-.05a1.071,1.071,0,0,0-.209-.7.719.719,0,0,0-.585-.251.7.7,0,0,0-.545.248.9.9,0,0,0-.217.617q0,.606,1.13,1.127c.2.089.35.159.457.209a3.646,3.646,0,0,1,1.481,1.157,3.064,3.064,0,0,1,.4,1.669,3,3,0,0,1-.794,2.138,2.626,2.626,0,0,1-2,.845,2.429,2.429,0,0,1-1.959-.89,3.937,3.937,0,0,1-.813-2.414Z"/><polygon class="cls-3" points="69.67 52.222 69.67 44.893 68.387 44.893 68.387 42.977 69.67 42.977 69.67 39.985 71.625 39.985 71.625 42.977 72.915 42.977 72.915 44.893 71.625 44.893 71.625 52.222 69.67 52.222"/><polygon class="cls-3" points="80.141 52.222 77.988 52.222 77.988 39.985 80.866 39.985 83.69 48.885 86.509 39.985 89.386 39.985 89.386 52.222 87.241 52.222 87.317 43.338 84.508 52.222 82.867 52.222 80.049 43.338 80.141 52.222"/><path class="cls-3" d="M97.1,46.574a2.659,2.659,0,0,0-.844-1.408,2.282,2.282,0,0,0-1.492-.483,2.114,2.114,0,0,0-1.4.521,2.562,2.562,0,0,0-.832,1.37ZM92.465,48.28a2.373,2.373,0,0,0,.721,1.576,2.268,2.268,0,0,0,1.608.577,2.308,2.308,0,0,0,1.179-.3,2.232,2.232,0,0,0,.829-.849h2.106a5.022,5.022,0,0,1-1.6,2.348,3.869,3.869,0,0,1-2.462.837,4.083,4.083,0,0,1-1.73-.365A4.254,4.254,0,0,1,91.7,51.02a4.924,4.924,0,0,1-.923-1.576,5.287,5.287,0,0,1-.329-1.835,5.423,5.423,0,0,1,.3-1.821,4.742,4.742,0,0,1,.889-1.534A4.644,4.644,0,0,1,93.09,43.1a3.7,3.7,0,0,1,1.673-.4,4.017,4.017,0,0,1,2.039.547,4.867,4.867,0,0,1,1.61,1.538,4.313,4.313,0,0,1,.6,1.335,6.653,6.653,0,0,1,.2,1.7c0,.051,0,.128-.008.231s-.007.181-.007.231Z"/><path class="cls-3" d="M104.1,44.851a2.208,2.208,0,0,0-1.587.655,3.283,3.283,0,0,0-.452,2v4.715h-1.953V42.976h1.833v1.068a2.982,2.982,0,0,1,.969-.913,2.441,2.441,0,0,1,1.19-.29Z"/><path class="cls-3" d="M110.692,46.263a2.646,2.646,0,0,0-.9-1.084,2.3,2.3,0,0,0-1.3-.363,2.09,2.09,0,0,0-1.66.791,2.966,2.966,0,0,0-.668,1.983,2.873,2.873,0,0,0,.682,1.959,2.183,2.183,0,0,0,1.714.782,2.045,2.045,0,0,0,2.108-1.5h2.084a4.81,4.81,0,0,1-1.489,2.665,3.936,3.936,0,0,1-2.686.967,4.069,4.069,0,0,1-1.726-.366,4.427,4.427,0,0,1-1.436-1.079,4.942,4.942,0,0,1-.931-1.577,5.23,5.23,0,0,1-.335-1.836,5.359,5.359,0,0,1,.3-1.824,4.767,4.767,0,0,1,.9-1.531,4.533,4.533,0,0,1,1.482-1.159,4.048,4.048,0,0,1,1.77-.4,3.979,3.979,0,0,1,2.673.968,4.621,4.621,0,0,1,1.489,2.6Z"/><path class="cls-3" d="M115.809,39.984v4.043a2.885,2.885,0,0,1,.981-.934,2.612,2.612,0,0,1,1.264-.3,2.89,2.89,0,0,1,2.412,1.062,4.854,4.854,0,0,1,.84,3.064v5.3h-1.955V48.146a5.812,5.812,0,0,0-.385-2.576,1.419,1.419,0,0,0-1.348-.678,1.488,1.488,0,0,0-1.405.761,5.753,5.753,0,0,0-.426,2.61v3.959H113.9V39.984Z"/><path class="cls-3" d="M124.262,47.524a2.814,2.814,0,0,0,.708,1.954,2.226,2.226,0,0,0,1.719.787,2.127,2.127,0,0,0,1.627-.791,2.7,2.7,0,0,0,.7-1.849,2.865,2.865,0,0,0-.706-1.939,2.14,2.14,0,0,0-1.653-.81,2.212,2.212,0,0,0-1.695.769,2.685,2.685,0,0,0-.7,1.879m4.978,4.7V51.088a2.264,2.264,0,0,1-.988,1.017,3.567,3.567,0,0,1-1.631.327,4,4,0,0,1-3.111-1.4,5.032,5.032,0,0,1-1.249-3.477,5.449,5.449,0,0,1,.314-1.847,4.784,4.784,0,0,1,.893-1.539,3.856,3.856,0,0,1,3.107-1.43,3.427,3.427,0,0,1,1.577.338,2.6,2.6,0,0,1,1.066,1.016V42.977h1.907v9.245Z"/><path class="cls-3" d="M134.525,42.976v1.051a2.864,2.864,0,0,1,.981-.933,2.584,2.584,0,0,1,1.263-.3,3.188,3.188,0,0,1,1.585.378,3.045,3.045,0,0,1,1.125,1.134,3.713,3.713,0,0,1,.416,1.147,10.392,10.392,0,0,1,.127,1.879v4.892h-1.955V48.128a5.711,5.711,0,0,0-.389-2.546,1.417,1.417,0,0,0-1.344-.69,1.488,1.488,0,0,0-1.405.761,5.738,5.738,0,0,0-.426,2.611v3.958h-1.887V42.976Z"/><polygon class="cls-3" points="142.093 52.222 142.093 44.893 140.81 44.893 140.81 42.977 142.093 42.977 142.093 39.985 144.047 39.985 144.047 42.977 145.338 42.977 145.338 44.893 144.047 44.893 144.047 52.222 142.093 52.222"/><path class="cls-3" d="M147.317,49.155v.126a1.633,1.633,0,0,0,.282,1,.873.873,0,0,0,.733.382.921.921,0,0,0,.7-.286,1.025,1.025,0,0,0,.27-.731,1.1,1.1,0,0,0-.2-.678,2.118,2.118,0,0,0-.71-.532c-.193-.1-.479-.227-.855-.4a3.264,3.264,0,0,1-.725-.4,2.666,2.666,0,0,1-.687-.937,2.948,2.948,0,0,1-.221-1.181,2.806,2.806,0,0,1,.744-1.975,2.362,2.362,0,0,1,1.805-.807,2.28,2.28,0,0,1,1.775.715,3.1,3.1,0,0,1,.715,2h-1.757v-.05a1.066,1.066,0,0,0-.21-.7.717.717,0,0,0-.584-.251.7.7,0,0,0-.546.248.9.9,0,0,0-.217.617q0,.606,1.13,1.127.3.133.458.209a3.641,3.641,0,0,1,1.48,1.157,3.056,3.056,0,0,1,.4,1.669,2.994,2.994,0,0,1-.794,2.138,2.626,2.626,0,0,1-2,.845,2.431,2.431,0,0,1-1.959-.89,3.943,3.943,0,0,1-.813-2.414Z"/><polygon class="cls-4" points="30.017 37.671 23.013 40.084 23.013 52.357 30.017 54.768 30.017 37.671"/><polygon class="cls-4" points="34.108 35.407 45.832 39.498 45.832 35.918 34.108 31.972 34.146 31.972 22.422 35.918 22.422 39.498 34.146 35.407 34.108 35.407"/><polygon class="cls-4" points="38.238 37.671 45.242 40.084 45.242 52.357 38.238 54.768 38.238 37.671"/><polygon class="cls-4" points="34.108 56.17 37.514 54.999 37.531 37.404 34.126 36.234 30.724 37.404 30.742 54.999 33.103 55.812 34.108 56.17"/><path class="cls-4" d="M43.9,54.251h-.278v.529H43.9a.668.668,0,0,0,.331-.06.211.211,0,0,0,.1-.2.232.232,0,0,0-.1-.209.635.635,0,0,0-.327-.063m.043-.149a.873.873,0,0,1,.464.1.347.347,0,0,1,.15.308.385.385,0,0,1-.095.26.421.421,0,0,1-.256.125l.332.677h-.256l-.312-.645h-.348v.645H43.4V54.1Zm1.109.759a1.167,1.167,0,0,0-.083-.44,1.12,1.12,0,0,0-.244-.364,1.151,1.151,0,0,0-.375-.248,1.188,1.188,0,0,0-.446-.086,1.134,1.134,0,0,0-.432.083,1.122,1.122,0,0,0-.367.244,1.179,1.179,0,0,0-.254.376,1.064,1.064,0,0,0-.091.432,1.088,1.088,0,0,0,.088.43,1.156,1.156,0,0,0,.249.369,1.181,1.181,0,0,0,.373.248,1.109,1.109,0,0,0,.434.086,1.121,1.121,0,0,0,.442-.088,1.221,1.221,0,0,0,.379-.249,1.049,1.049,0,0,0,.244-.356,1.116,1.116,0,0,0,.083-.437M43.906,53.58a1.352,1.352,0,0,1,.5.095,1.262,1.262,0,0,1,.416.28,1.218,1.218,0,0,1,.275.41,1.3,1.3,0,0,1,0,.981,1.2,1.2,0,0,1-.277.407,1.316,1.316,0,0,1-.427.283,1.285,1.285,0,0,1-.492.1,1.252,1.252,0,0,1-.492-.1A1.227,1.227,0,0,1,43,55.756a1.251,1.251,0,0,1-.28-1.385,1.359,1.359,0,0,1,.287-.424,1.23,1.23,0,0,1,.407-.273,1.294,1.294,0,0,1,.492-.094"/></svg>