<svg id="Layer_1" data-name="Layer 1" xmlns="http://www.w3.org/2000/svg" viewBox="0 0 728 90"><defs><style>.cls-1{fill:#be9a2d;}.cls-2{fill:#fff;}</style></defs><rect class="cls-1" x="647.063" y="36.535" width="67.504" height="16.929"/><path class="cls-2" d="M656.363,41.714h1.124v5.454h3.268v.972h-4.392Z"/><path class="cls-2" d="M662.5,46.079a1.237,1.237,0,0,0,1.251,1.376,1.078,1.078,0,0,0,1.134-.774h.972a2.037,2.037,0,0,1-2.106,1.585,2.208,2.208,0,0,1-2.277-2.448,2.252,2.252,0,1,1,4.447.261ZM664.9,45.4a1.2,1.2,0,1,0-2.395,0Z"/><path class="cls-2" d="M670.935,47.1c0,.252.055.351.244.351a1.4,1.4,0,0,0,.251-.018v.712a2.568,2.568,0,0,1-.647.117c-.414,0-.711-.144-.792-.568a2.391,2.391,0,0,1-1.611.568,1.416,1.416,0,0,1-1.594-1.36c0-1.16.928-1.35,1.792-1.449.738-.134,1.395-.053,1.395-.657,0-.53-.55-.629-.964-.629-.576,0-.98.233-1.025.738h-1.026c.071-1.2,1.089-1.548,2.114-1.548.909,0,1.863.368,1.863,1.35Zm-1.025-1.3a3.64,3.64,0,0,1-1.261.279c-.44.073-.836.235-.836.774,0,.459.584.594.945.594.449,0,1.152-.234,1.152-.881Z"/><path class="cls-2" d="M672.4,43.486h.964v.9h.018a1.5,1.5,0,0,1,1.358-1.025,2.661,2.661,0,0,1,.388.026v.99a3.659,3.659,0,0,0-.441-.044c-.7,0-1.261.566-1.261,1.592V48.14H672.4Z"/><path class="cls-2" d="M675.968,43.486h.972v.685l.018.017a1.669,1.669,0,0,1,1.449-.827,1.471,1.471,0,0,1,1.647,1.584v3.2h-1.026V45.214c-.017-.729-.306-1.043-.908-1.043a1.134,1.134,0,0,0-1.126,1.223V48.14h-1.026Z"/><path class="cls-2" d="M684.115,41.714H685.7l1.773,5.03h.018l1.728-5.03h1.566V48.14h-1.071V43.181H689.7l-1.783,4.959h-.926L685.2,43.181h-.018V48.14h-1.071Z"/><path class="cls-2" d="M692.09,45.808a2.351,2.351,0,1,1,2.349,2.458A2.246,2.246,0,0,1,692.09,45.808Zm3.672,0c0-.8-.4-1.637-1.323-1.637s-1.323.837-1.323,1.637.4,1.647,1.323,1.647S695.762,46.619,695.762,45.808Z"/><path class="cls-2" d="M697.951,43.486h.962v.9h.018a1.5,1.5,0,0,1,1.36-1.025,2.624,2.624,0,0,1,.386.026v.99a3.639,3.639,0,0,0-.441-.044c-.7,0-1.26.566-1.26,1.592V48.14h-1.025Z"/><path class="cls-2" d="M702.27,46.079a1.237,1.237,0,0,0,1.251,1.376,1.079,1.079,0,0,0,1.135-.774h.972a2.04,2.04,0,0,1-2.107,1.585,2.207,2.207,0,0,1-2.276-2.448,2.252,2.252,0,1,1,4.446.261Zm2.394-.675a1.2,1.2,0,1,0-2.394,0Z"/></svg>