<svg id="Layer_1" data-name="Layer 1" xmlns="http://www.w3.org/2000/svg" viewBox="0 0 300 250"><defs><style>.cls-1{fill:#4c4c4d;}</style></defs><path class="cls-1" d="M48.32,82.834c0-1.848-.373-2.646-1.528-2.646-1.3,0-1.6,1.3-1.6,4.883,0,3.838.533,4.529,1.634,4.529.923,0,1.6-.479,1.6-3.214h2.558c0,2.735-.675,5.1-4.031,5.1-3.837,0-4.317-2.735-4.317-6.589s.48-6.591,4.317-6.591c3.658,0,3.924,2.683,3.924,4.531Z"/><path class="cls-1" d="M52.88,78.553h4.725c2.1,0,3.374,1.1,3.374,3.268,0,1.688-.675,2.825-2.113,3.126v.036c1.74.231,2.006,1.189,2.042,3.872.018,1.332.089,2.025.569,2.273v.107H58.706a2.47,2.47,0,0,1-.319-1.332l-.072-2.433c-.035-1-.479-1.6-1.51-1.6H55.438v5.364H52.88Zm2.558,5.541H56.5a1.667,1.667,0,0,0,1.917-1.9,1.573,1.573,0,0,0-1.775-1.757H55.438Z"/><path class="cls-1" d="M70.266,78.553v2.1H65.735v2.983H70v2.1H65.735v3.41h4.708v2.1H63.177V78.553Z"/><path class="cls-1" d="M74.631,78.553h3.161l3.357,12.682H78.485L77.9,88.552H74.524l-.586,2.683H71.273Zm.337,7.9h2.487l-1.226-5.7h-.036Z"/><path class="cls-1" d="M88.943,78.553v2.1H86.171V91.235H83.614V80.649H80.842v-2.1Z"/><path class="cls-1" d="M90.591,91.235V78.553h2.557V91.235Z"/><path class="cls-1" d="M98.438,78.553l3.092,8.685h.034V78.553h2.345V91.235H101L97.87,82.354h-.035v8.881H95.49V78.553Z"/><path class="cls-1" d="M111.755,82.318c0-.941-.426-2.13-1.456-2.13-1.243,0-1.741,1.278-1.741,4.44,0,3.055.284,4.972,1.759,4.972a1.864,1.864,0,0,0,1.581-2.023v-1.3H110.21V84.4h4.139v6.839h-1.883V90.062h-.036a2.849,2.849,0,0,1-2.665,1.421c-3.142,0-3.765-2.344-3.765-6.732,0-4.263,1-6.448,4.263-6.448,2.807,0,3.944,1.439,3.944,4.015Z"/><path class="cls-1" d="M123.205,87.274v.373c0,1.19.337,1.953,1.687,1.953a1.461,1.461,0,0,0,1.528-1.562c0-1.155-.586-1.582-2.274-2.167-2.273-.782-3.321-1.723-3.321-3.837,0-2.469,1.51-3.731,3.926-3.731,2.273,0,3.924.978,3.924,3.411v.356h-2.451c0-1.191-.409-1.882-1.384-1.882a1.309,1.309,0,0,0-1.457,1.473c0,.782.231,1.262,1.314,1.723l1.971.853c1.919.834,2.416,1.812,2.416,3.356,0,2.683-1.634,3.89-4.405,3.89-2.895,0-4.032-1.349-4.032-3.694v-.515Z"/><path class="cls-1" d="M134.852,78.3c3.836,0,4.316,2.737,4.316,6.591s-.48,6.589-4.316,6.589-4.317-2.735-4.317-6.589S131.015,78.3,134.852,78.3Zm0,11.3c1.51,0,1.758-1.3,1.758-4.706,0-3.392-.248-4.706-1.758-4.706s-1.759,1.314-1.759,4.706C133.093,88.3,133.343,89.6,134.852,89.6Z"/><path class="cls-1" d="M141.1,91.235V78.553h2.557V89.139h4.529v2.1Z"/><path class="cls-1" d="M152.163,78.553V87.4c0,1.261.3,2.2,1.493,2.2s1.491-.941,1.491-2.2V78.553h2.558V87.4c0,3.232-1.971,4.085-4.049,4.085S149.6,90.791,149.6,87.4V78.553Z"/><path class="cls-1" d="M167.166,78.553v2.1H164.4V91.235h-2.556V80.649h-2.772v-2.1Z"/><path class="cls-1" d="M168.832,91.235V78.553h2.558V91.235Z"/><path class="cls-1" d="M177.784,78.3c3.835,0,4.315,2.737,4.315,6.591s-.48,6.589-4.315,6.589-4.317-2.735-4.317-6.589S173.946,78.3,177.784,78.3Zm0,11.3c1.509,0,1.757-1.3,1.757-4.706,0-3.392-.248-4.706-1.757-4.706s-1.76,1.314-1.76,4.706C176.024,88.3,176.274,89.6,177.784,89.6Z"/><path class="cls-1" d="M186.98,78.553l3.09,8.685h.035V78.553h2.345V91.235h-2.914l-3.124-8.881h-.037v8.881h-2.344V78.553Z"/><path class="cls-1" d="M196.725,87.274v.373c0,1.19.337,1.953,1.687,1.953a1.461,1.461,0,0,0,1.528-1.562c0-1.155-.586-1.582-2.274-2.167-2.273-.782-3.321-1.723-3.321-3.837,0-2.469,1.51-3.731,3.926-3.731,2.273,0,3.925.978,3.925,3.411v.356h-2.451c0-1.191-.409-1.882-1.385-1.882a1.309,1.309,0,0,0-1.457,1.473c0,.782.231,1.262,1.314,1.723l1.971.853c1.919.834,2.417,1.812,2.417,3.356,0,2.683-1.635,3.89-4.406,3.89-2.9,0-4.032-1.349-4.032-3.694v-.515Z"/><path class="cls-1" d="M209.012,78.553H216.1v2.1h-4.529v2.983h4.263v2.1h-4.263v5.506h-2.557Z"/><path class="cls-1" d="M221.725,78.3c3.836,0,4.316,2.737,4.316,6.591s-.48,6.589-4.316,6.589-4.317-2.735-4.317-6.589S217.888,78.3,221.725,78.3Zm0,11.3c1.51,0,1.758-1.3,1.758-4.706,0-3.392-.248-4.706-1.758-4.706s-1.759,1.314-1.759,4.706C219.966,88.3,220.215,89.6,221.725,89.6Z"/><path class="cls-1" d="M228.328,78.553h4.724c2.1,0,3.374,1.1,3.374,3.268,0,1.688-.675,2.825-2.114,3.126v.036c1.741.231,2.008,1.189,2.044,3.872.018,1.332.088,2.025.568,2.273v.107h-2.771a2.47,2.47,0,0,1-.319-1.332l-.072-2.433c-.035-1-.48-1.6-1.51-1.6h-1.367v5.364h-2.557Zm2.557,5.541h1.065a1.669,1.669,0,0,0,1.919-1.9,1.573,1.573,0,0,0-1.776-1.757h-1.208Z"/><path class="cls-1" d="M48.32,105.559c0-1.848-.373-2.647-1.528-2.647-1.3,0-1.6,1.3-1.6,4.884,0,3.838.533,4.529,1.634,4.529.923,0,1.6-.479,1.6-3.215h2.558c0,2.736-.675,5.1-4.031,5.1-3.837,0-4.317-2.735-4.317-6.589s.48-6.589,4.317-6.589c3.658,0,3.924,2.681,3.924,4.529Z"/><path class="cls-1" d="M56.664,101.03c3.837,0,4.317,2.735,4.317,6.589s-.48,6.589-4.317,6.589-4.316-2.735-4.316-6.589S52.828,101.03,56.664,101.03Zm0,11.3c1.509,0,1.759-1.3,1.759-4.706,0-3.392-.25-4.707-1.759-4.707s-1.758,1.315-1.758,4.707C54.906,111.029,55.154,112.325,56.664,112.325Z"/><path class="cls-1" d="M63.071,101.278h3.8l1.812,8.951h.036l1.828-8.951h3.784V113.96H71.987V103.836h-.034L69.7,113.96h-1.99l-2.255-10.124h-.035V113.96H63.071Z"/><path class="cls-1" d="M76.742,101.278h3.8l1.812,8.951h.036l1.829-8.951H88V113.96H85.659V103.836h-.035L83.367,113.96H81.378l-2.256-10.124h-.034V113.96H76.742Z"/><path class="cls-1" d="M92.757,101.278v8.846c0,1.26.3,2.2,1.492,2.2s1.493-.941,1.493-2.2v-8.846H98.3v8.846c0,3.231-1.973,4.084-4.051,4.084s-4.049-.692-4.049-4.084v-8.846Z"/><path class="cls-1" d="M103.375,101.278l3.09,8.685h.036v-8.685h2.344V113.96h-2.912l-3.127-8.881h-.036v8.881h-2.344V101.278Z"/><path class="cls-1" d="M111.274,113.96V101.278h2.557V113.96Z"/><path class="cls-1" d="M123.686,101.278v2.1h-2.769V113.96h-2.558V103.374h-2.771v-2.1Z"/><path class="cls-1" d="M125.086,113.96V101.278h2.558V113.96Z"/><path class="cls-1" d="M137.162,101.278v2.1h-4.529v2.983H136.9v2.1h-4.263v3.411h4.707v2.1h-7.265V101.278Z"/><path class="cls-1" d="M140.515,110v.373c0,1.189.337,1.953,1.687,1.953a1.46,1.46,0,0,0,1.528-1.562c0-1.155-.586-1.582-2.273-2.167-2.274-.782-3.322-1.723-3.322-3.837,0-2.469,1.51-3.729,3.926-3.729,2.274,0,3.925.976,3.925,3.41v.355h-2.451c0-1.191-.409-1.883-1.385-1.883a1.309,1.309,0,0,0-1.457,1.474c0,.782.231,1.262,1.314,1.723l1.971.853c1.919.834,2.417,1.812,2.417,3.356,0,2.682-1.635,3.89-4.406,3.89-2.9,0-4.031-1.349-4.031-3.695V110Z"/><path class="cls-1" d="M158.946,109.786a5.185,5.185,0,0,0,.443-1.919h2.2a6.592,6.592,0,0,1-1.3,3.749l1.669,2.344h-2.717l-.711-.978a4.026,4.026,0,0,1-3.054,1.226c-3.215,0-3.89-2.238-3.89-3.659,0-1.473.976-2.682,2.557-3.658l-.445-.657a3.612,3.612,0,0,1-.852-2.292c0-1.652,1.332-2.664,3.233-2.664,2.166,0,3.162,1.171,3.162,2.646,0,1.262-.711,2.238-2.2,3.286ZM155.34,108.4a2.615,2.615,0,0,0-1.3,2.148,1.691,1.691,0,0,0,1.776,1.67,2,2,0,0,0,1.652-.8Zm.249-3.144.3.425.463-.391a1.819,1.819,0,0,0,.8-1.385,1.1,1.1,0,0,0-2.2-.034A2.633,2.633,0,0,0,155.589,105.257Z"/><path class="cls-1" d="M167.413,101.278h4.279c2.1,0,3.606.782,3.606,3.215a2.65,2.65,0,0,1-1.917,2.771v.035a2.681,2.681,0,0,1,2.308,2.948c0,1.99-.976,3.713-3.961,3.713h-4.315Zm2.558,5.2h.727c1.4,0,2.042-.48,2.042-1.669,0-1.209-.585-1.653-1.846-1.653h-.923Zm0,5.595h.993c1.226,0,2.06-.443,2.06-1.918s-.834-1.9-1.953-1.9h-1.1Z"/><path class="cls-1" d="M179.859,101.278v8.846c0,1.26.3,2.2,1.493,2.2s1.491-.941,1.491-2.2v-8.846H185.4v8.846c0,3.231-1.971,4.084-4.049,4.084s-4.051-.692-4.051-4.084v-8.846Z"/><path class="cls-1" d="M189.25,110v.373c0,1.189.337,1.953,1.688,1.953a1.46,1.46,0,0,0,1.527-1.562c0-1.155-.586-1.582-2.273-2.167-2.274-.782-3.322-1.723-3.322-3.837,0-2.469,1.51-3.729,3.926-3.729,2.274,0,3.925.976,3.925,3.41v.355H192.27c0-1.191-.409-1.883-1.385-1.883a1.309,1.309,0,0,0-1.457,1.474c0,.782.231,1.262,1.314,1.723l1.971.853c1.919.834,2.417,1.812,2.417,3.356,0,2.682-1.635,3.89-4.406,3.89-2.894,0-4.031-1.349-4.031-3.695V110Z"/><path class="cls-1" d="M196.706,113.96V101.278h2.557V113.96Z"/><path class="cls-1" d="M204.287,101.278l3.092,8.685h.036v-8.685h2.344V113.96h-2.913l-3.127-8.881h-.035v8.881H201.34V101.278Z"/><path class="cls-1" d="M218.8,101.278v2.1h-4.529v2.983h4.263v2.1h-4.263v3.411h4.706v2.1h-7.264V101.278Z"/><path class="cls-1" d="M222.131,110v.373c0,1.189.337,1.953,1.687,1.953a1.46,1.46,0,0,0,1.528-1.562c0-1.155-.587-1.582-2.274-2.167-2.273-.782-3.321-1.723-3.321-3.837,0-2.469,1.509-3.729,3.926-3.729,2.273,0,3.924.976,3.924,3.41v.355H225.15c0-1.191-.409-1.883-1.384-1.883a1.31,1.31,0,0,0-1.458,1.474c0,.782.232,1.262,1.315,1.723l1.971.853c1.919.834,2.416,1.812,2.416,3.356,0,2.682-1.634,3.89-4.405,3.89-2.895,0-4.032-1.349-4.032-3.695V110Z"/><path class="cls-1" d="M231.523,110v.373c0,1.189.337,1.953,1.687,1.953a1.46,1.46,0,0,0,1.528-1.562c0-1.155-.587-1.582-2.274-2.167-2.273-.782-3.321-1.723-3.321-3.837,0-2.469,1.509-3.729,3.926-3.729,2.273,0,3.924.976,3.924,3.41v.355h-2.451c0-1.191-.409-1.883-1.385-1.883a1.31,1.31,0,0,0-1.457,1.474c0,.782.232,1.262,1.315,1.723l1.971.853c1.919.834,2.416,1.812,2.416,3.356,0,2.682-1.634,3.89-4.4,3.89-2.9,0-4.032-1.349-4.032-3.695V110Z"/><path class="cls-1" d="M241.27,111.189v2.771h-2.345v-2.771Z"/></svg>