<svg id="Layer_1" data-name="Layer 1" xmlns="http://www.w3.org/2000/svg" viewBox="0 0 728 90"><defs><style>.cls-1{fill:#c09940;}</style></defs><polygon class="cls-1" points="167.697 44.967 163.254 57.701 167.141 57.701 171.427 44.967 171.427 45.008 167.141 32.275 163.254 32.275 167.697 45.008 167.697 44.967"/><path class="cls-1" d="M441.548,32.323h9.273c4.114,0,6.624,2.161,6.624,6.414,0,3.312-1.326,5.543-4.149,6.135v.07c3.417.454,3.94,2.337,4.009,7.6.035,2.614.175,3.974,1.115,4.462v.209h-5.437a4.852,4.852,0,0,1-.628-2.614l-.139-4.776c-.07-1.952-.942-3.138-2.964-3.138h-2.684V57.213h-5.02Zm5.02,10.877h2.092c2.4,0,3.765-1.047,3.765-3.731,0-2.3-1.221-3.452-3.487-3.452h-2.37Z"/><path class="cls-1" d="M438.686,32.323v4.114H429.8v5.855h8.367v4.114H429.8V53.1h9.238v4.114H424.777V32.323Z"/><path class="cls-1" d="M404.693,32.323h5.019v9.516h5.857V32.323h5.02v24.89h-5.02V46.162h-5.857V57.213h-5.019Z"/><path class="cls-1" d="M403.225,32.323v4.114h-5.437V57.213h-5.02V36.437h-5.439V32.323Z"/><path class="cls-1" d="M385.792,32.323v4.114H376.9v5.855h8.367v4.114H376.9V53.1h9.238v4.114H371.883V32.323Z"/><path class="cls-1" d="M362.849,39.713c0-1.848-.837-4.184-2.859-4.184-2.44,0-3.416,2.51-3.416,8.716,0,6,.558,9.762,3.451,9.762,1.186,0,3.1-1.291,3.1-3.975V47.488h-3.312v-3.7h8.123V57.213h-3.7v-2.3h-.07a5.591,5.591,0,0,1-5.228,2.789c-6.171,0-7.39-4.6-7.39-13.212,0-8.366,1.952-12.654,8.365-12.654,5.509,0,7.74,2.823,7.74,7.878Z"/><path class="cls-1" d="M340.359,31.835c7.53,0,8.471,5.368,8.471,12.932S347.889,57.7,340.359,57.7s-8.47-5.368-8.47-12.934S332.829,31.835,340.359,31.835Zm0,22.172c2.964,0,3.451-2.546,3.451-9.24,0-6.658-.487-9.238-3.451-9.238s-3.451,2.58-3.451,9.238C336.908,51.461,337.4,54.007,340.359,54.007Z"/><path class="cls-1" d="M331.64,32.323v4.114H326.2V57.213h-5.02V36.437h-5.439V32.323Z"/><path class="cls-1" d="M301.759,39.713c0-1.848-.837-4.184-2.859-4.184-2.44,0-3.416,2.51-3.416,8.716,0,6,.558,9.762,3.451,9.762,1.186,0,3.1-1.291,3.1-3.975V47.488h-3.312v-3.7h8.123V57.213h-3.7v-2.3h-.07a5.591,5.591,0,0,1-5.228,2.789c-6.171,0-7.39-4.6-7.39-13.212,0-8.366,1.952-12.654,8.365-12.654,5.509,0,7.74,2.823,7.74,7.878Z"/><path class="cls-1" d="M277.178,32.323l6.067,17.046h.069V32.323h4.6v24.89H282.2l-6.135-17.43h-.07v17.43h-4.6V32.323Z"/><path class="cls-1" d="M263.337,57.213V32.323h5.02v24.89Z"/><path class="cls-1" d="M250.086,32.323v9.969h.07l6.345-9.969h5.437l-6.763,10.668,7.531,14.222h-5.648L251.934,47l-1.848,2.825v7.39h-5.02V32.323Z"/><path class="cls-1" d="M226.377,32.323h9.273c4.114,0,6.624,2.161,6.624,6.414,0,3.312-1.326,5.543-4.149,6.135v.07c3.417.454,3.94,2.337,4.009,7.6.035,2.614.174,3.974,1.115,4.462v.209h-5.438a4.86,4.86,0,0,1-.627-2.614l-.139-4.776c-.07-1.952-.942-3.138-2.964-3.138H231.4V57.213h-5.02ZM231.4,43.2h2.092c2.405,0,3.765-1.047,3.765-3.731,0-2.3-1.221-3.452-3.487-3.452H231.4Z"/><path class="cls-1" d="M215.636,31.835c7.53,0,8.471,5.368,8.471,12.932S223.166,57.7,215.636,57.7s-8.47-5.368-8.47-12.934S208.106,31.835,215.636,31.835Zm0,22.172c2.964,0,3.451-2.546,3.451-9.24,0-6.658-.487-9.238-3.451-9.238s-3.451,2.58-3.451,9.238C212.185,51.461,212.673,54.007,215.636,54.007Z"/><path class="cls-1" d="M180.422,32.323h4.81l2.755,18.406h.07l2.928-18.406h4.81l2.928,18.406h.07l2.755-18.406h4.81l-4.531,24.89h-5.614l-2.788-18.057h-.07l-2.788,18.057h-5.614Z"/></svg>